<svg width="64" height="64" viewBox="0 0 64 64" version="1.1" xmlns="http://www.w3.org/2000/svg"><title>pinned_icon</title><path d="M23.042 7.875c-2.269.58-4.269 1.504-5.974 2.764a14.003 14.003 0 0 0-4.103 4.763c-1.008 1.911-1.52 4.201-1.52 6.866 0 4.057 1.105 7.364 3.322 9.91 2.225 2.54 5.139 4.233 8.773 5.078L7 57h15l14.554-18.84h8.5V57H57V7H30.2c-2.5 0-4.89.295-7.158.875zm22.012 7.74V29.97H33.72c-1.369 0-2.697-.104-3.968-.315-1.293-.208-2.41-.607-3.374-1.19a6.803 6.803 0 0 1-2.345-2.34c-.588-.99-.883-2.25-.883-3.79 0-1.447.282-2.6.843-3.464a5.956 5.956 0 0 1 2.263-2.033c.946-.488 2.019-.818 3.22-.981 1.19-.161 2.433-.24 3.718-.24h11.86z" fill="#3E3C36" stroke="none" stroke-width="1" fill-rule="evenodd"/></svg>