<svg width="386" height="386" viewBox="0 0 386 386" version="1.1" xmlns="http://www.w3.org/2000/svg"><title>rodesk-jumbo-assets</title><g transform="translate(1 1)" fill="#FFF" stroke="none" stroke-width="1" fill-rule="evenodd"><circle stroke="#E4E4E4" stroke-width="2" fill-opacity=".3" opacity=".2" cx="192" cy="192" r="192"/><g opacity=".4"><path d="M131.513 64.027h-7.348l-1.653 4.473h-1.366l6.092-16.04h1.245l6.048 16.04h-1.366l-1.652-4.473zm-6.908-1.179h6.478l-3.195-8.68h-.066l-3.217 8.68zm23.598-10.388v10.873c0 1.748-.534 3.085-1.603 4.01-1.069.926-2.462 1.388-4.18 1.388-1.697 0-3.07-.464-4.121-1.393-1.05-.93-1.575-2.264-1.575-4.005V52.46h1.322v10.873c0 1.366.404 2.422 1.211 3.167.808.746 1.862 1.119 3.162 1.119 1.322 0 2.398-.371 3.228-1.113.83-.742 1.245-1.8 1.245-3.173V52.46h1.31zm15.368 14.134c-.36.522-1.015 1.008-1.966 1.46-.951.452-2.15.677-3.597.677-1.866 0-3.395-.635-4.589-1.906-1.193-1.27-1.79-2.915-1.79-4.935v-2.941c0-1.983.567-3.6 1.702-4.848 1.135-1.248 2.606-1.873 4.412-1.873 1.726 0 3.076.432 4.049 1.295.973.863 1.537 1.985 1.691 3.365l-.022.067h-1.223c-.19-1.073-.642-1.941-1.355-2.606-.712-.665-1.759-.997-3.14-.997-1.44 0-2.598.522-3.475 1.564-.878 1.043-1.317 2.38-1.317 4.01v2.964c0 1.675.466 3.048 1.4 4.12.932 1.073 2.151 1.609 3.657 1.609 1.065 0 1.97-.15 2.715-.447.746-.297 1.254-.622 1.526-.974V62.01h-4.263v-1.124h5.585v5.707zm-22.56 31.589c0 3.766-.815 6.663-2.444 8.693-1.629 2.03-3.892 3.045-6.79 3.045-2.884 0-5.151-1.019-6.8-3.055-1.65-2.036-2.474-4.93-2.474-8.683v-6.51c0-3.752.815-6.65 2.444-8.693 1.629-2.043 3.892-3.065 6.79-3.065s5.168 1.022 6.81 3.065c1.643 2.043 2.464 4.94 2.464 8.693v6.51zm-2.404-6.91c0-2.992-.587-5.292-1.762-6.901-1.175-1.61-2.878-2.414-5.108-2.414-2.23 0-3.926.805-5.088 2.414-1.161 1.61-1.742 3.91-1.742 6.9v7.271c0 2.965.59 5.265 1.772 6.9 1.182 1.637 2.881 2.455 5.098 2.455s3.91-.815 5.078-2.444c1.168-1.63 1.752-3.933 1.752-6.91v-7.272zm15.344 16.625c2.216 0 3.979-.742 5.288-2.224 1.308-1.482 1.963-3.605 1.963-6.37V96.38c-.708 1.229-1.66 2.177-2.855 2.844-1.195.668-2.527 1.002-3.996 1.002-2.657 0-4.797-.921-6.42-2.764-1.622-1.843-2.433-4.227-2.433-7.151 0-2.951.851-5.422 2.554-7.411 1.702-1.99 3.809-2.985 6.32-2.985 2.817 0 5.074.918 6.77 2.754 1.695 1.837 2.543 4.504 2.543 8.003v8.593c0 3.378-.894 5.999-2.684 7.861-1.79 1.863-4.14 2.795-7.05 2.795-1.042 0-2.087-.1-3.135-.3a14.046 14.046 0 0 1-2.995-.922l.441-2.003c.908.427 1.806.734 2.694.921.888.187 1.886.28 2.995.28zm.4-9.695c1.736 0 3.188-.444 4.357-1.332 1.168-.888 2-1.986 2.494-3.295V90.49c0-2.764-.605-4.877-1.813-6.34-1.209-1.462-2.848-2.193-4.918-2.193-1.882 0-3.435.815-4.657 2.444-1.221 1.63-1.832 3.599-1.832 5.909 0 2.243.574 4.12 1.722 5.628 1.149 1.51 2.698 2.264 4.647 2.264z"/><text transform="translate(165 80.5)" font-size="45.124" font-family="Roboto-Light, Roboto" font-weight="300"><tspan x=".353" y="47.347">—</tspan></text><path d="M223.812 64.027h-7.348l-1.652 4.473h-1.366l6.092-16.04h1.245l6.048 16.04h-1.366l-1.653-4.473zm-6.907-1.179h6.478l-3.195-8.68h-.066l-3.217 8.68zm23.598-10.388v10.873c0 1.748-.535 3.085-1.603 4.01-1.069.926-2.463 1.388-4.181 1.388-1.697 0-3.07-.464-4.12-1.393-1.05-.93-1.576-2.264-1.576-4.005V52.46h1.322v10.873c0 1.366.404 2.422 1.212 3.167.808.746 1.862 1.119 3.162 1.119 1.322 0 2.398-.371 3.228-1.113.83-.742 1.245-1.8 1.245-3.173V52.46h1.31zm15.368 14.134c-.36.522-1.016 1.008-1.967 1.46-.95.452-2.15.677-3.597.677-1.865 0-3.395-.635-4.588-1.906-1.194-1.27-1.79-2.915-1.79-4.935v-2.941c0-1.983.567-3.6 1.702-4.848 1.134-1.248 2.605-1.873 4.412-1.873 1.726 0 3.075.432 4.049 1.295.973.863 1.536 1.985 1.69 3.365l-.021.067h-1.223c-.191-1.073-.643-1.941-1.355-2.606-.713-.665-1.76-.997-3.14-.997-1.44 0-2.598.522-3.476 1.564-.877 1.043-1.316 2.38-1.316 4.01v2.964c0 1.675.466 3.048 1.399 4.12.933 1.073 2.152 1.609 3.657 1.609 1.065 0 1.97-.15 2.716-.447.745-.297 1.254-.622 1.526-.974V62.01h-4.264v-1.124h5.586v5.707zM226.27 109.64h-2.404v-26.8l-7.41.861v-1.683l9.814-1.762v29.384zm19.39-1.742c2.216 0 3.979-.742 5.287-2.224 1.309-1.482 1.963-3.605 1.963-6.37V96.38c-.707 1.229-1.659 2.177-2.854 2.844-1.195.668-2.527 1.002-3.996 1.002-2.657 0-4.797-.921-6.42-2.764-1.622-1.843-2.433-4.227-2.433-7.151 0-2.951.85-5.422 2.553-7.411 1.703-1.99 3.81-2.985 6.32-2.985 2.818 0 5.074.918 6.77 2.754 1.696 1.837 2.544 4.504 2.544 8.003v8.593c0 3.378-.895 5.999-2.684 7.861-1.79 1.863-4.14 2.795-7.05 2.795-1.042 0-2.087-.1-3.135-.3a14.046 14.046 0 0 1-2.995-.922l.44-2.003c.909.427 1.807.734 2.695.921.888.187 1.886.28 2.994.28zm.4-9.695c1.736 0 3.188-.444 4.356-1.332 1.169-.888 2-1.986 2.494-3.295V90.49c0-2.764-.604-4.877-1.812-6.34-1.209-1.462-2.848-2.193-4.918-2.193-1.883 0-3.435.815-4.657 2.444-1.222 1.63-1.833 3.599-1.833 5.909 0 2.243.574 4.12 1.723 5.628 1.148 1.51 2.697 2.264 4.647 2.264z"/></g><path opacity=".1" d="M37.5 135.5H345v109H37.5z"/><path d="M323.14 201.254l-7.364 7.364-2.18-2.18 7.365-7.363z"/><path d="M310.638 199.075l7.364 7.364-2.18 2.18-7.363-7.365zM308.347 175.61l7.364-7.363 2.179 2.18-7.364 7.363z"/><path d="M320.849 177.79l-7.364-7.364 2.18-2.18 7.363 7.365z"/><g><path d="M131.513 172.027h-7.348l-1.653 4.473h-1.366l6.092-16.04h1.245l6.048 16.04h-1.366l-1.652-4.473zm-6.908-1.179h6.478l-3.195-8.68h-.066l-3.217 8.68zm23.598-10.388v10.873c0 1.748-.534 3.085-1.603 4.01-1.069.926-2.462 1.388-4.18 1.388-1.697 0-3.07-.464-4.121-1.393-1.05-.93-1.575-2.264-1.575-4.005V160.46h1.322v10.873c0 1.366.404 2.422 1.211 3.167.808.746 1.862 1.119 3.162 1.119 1.322 0 2.398-.371 3.228-1.113.83-.742 1.245-1.8 1.245-3.173V160.46h1.31zm15.368 14.134c-.36.522-1.015 1.008-1.966 1.46-.951.452-2.15.677-3.597.677-1.866 0-3.395-.635-4.589-1.906-1.193-1.27-1.79-2.915-1.79-4.935v-2.941c0-1.983.567-3.6 1.702-4.848 1.135-1.248 2.606-1.873 4.412-1.873 1.726 0 3.076.432 4.049 1.295.973.863 1.537 1.985 1.691 3.365l-.022.067h-1.223c-.19-1.073-.642-1.941-1.355-2.606-.712-.665-1.759-.997-3.14-.997-1.44 0-2.598.522-3.475 1.564-.878 1.043-1.317 2.38-1.317 4.01v2.964c0 1.675.466 3.048 1.4 4.12.932 1.073 2.151 1.609 3.657 1.609 1.065 0 1.97-.15 2.715-.447.746-.297 1.254-.622 1.526-.974v-4.187h-4.263v-1.124h5.585v5.707zm-22.92 42.906h-18.108v-1.843l9.555-10.836c1.762-1.99 3.007-3.656 3.735-4.998.728-1.342 1.092-2.627 1.092-3.856 0-1.816-.51-3.271-1.532-4.366-1.022-1.095-2.468-1.643-4.337-1.643-2.217 0-3.9.615-5.048 1.843-1.148 1.229-1.722 2.871-1.722 4.928h-2.224l-.04-.12c-.066-2.43.721-4.487 2.364-6.17 1.642-1.682 3.866-2.524 6.67-2.524 2.51 0 4.52.721 6.03 2.164 1.508 1.442 2.263 3.378 2.263 5.808 0 1.603-.505 3.229-1.513 4.878s-2.413 3.488-4.216 5.518l-8.032 9.094.04.1h15.022v2.023zm23.094-11.317c0 3.766-.814 6.663-2.443 8.693-1.63 2.03-3.893 3.045-6.79 3.045-2.885 0-5.152-1.019-6.8-3.055-1.65-2.036-2.475-4.93-2.475-8.683v-6.51c0-3.752.815-6.65 2.444-8.693 1.63-2.043 3.893-3.065 6.79-3.065 2.898 0 5.168 1.022 6.81 3.065 1.643 2.043 2.464 4.94 2.464 8.693v6.51zm-2.403-6.91c0-2.992-.588-5.292-1.763-6.901-1.175-1.61-2.878-2.414-5.108-2.414-2.23 0-3.926.805-5.087 2.414-1.162 1.61-1.743 3.91-1.743 6.9v7.271c0 2.965.591 5.265 1.773 6.9 1.182 1.637 2.88 2.455 5.097 2.455 2.217 0 3.91-.815 5.078-2.444 1.169-1.63 1.753-3.933 1.753-6.91v-7.272z"/><text transform="translate(165 188.5)" font-size="45.124" font-family="Roboto-Light, Roboto" font-weight="300"><tspan x=".353" y="47.347">—</tspan></text><path d="M223.812 172.027h-7.348l-1.652 4.473h-1.366l6.092-16.04h1.245l6.048 16.04h-1.366l-1.653-4.473zm-6.907-1.179h6.478l-3.195-8.68h-.066l-3.217 8.68zm23.598-10.388v10.873c0 1.748-.535 3.085-1.603 4.01-1.069.926-2.463 1.388-4.181 1.388-1.697 0-3.07-.464-4.12-1.393-1.05-.93-1.576-2.264-1.576-4.005V160.46h1.322v10.873c0 1.366.404 2.422 1.212 3.167.808.746 1.862 1.119 3.162 1.119 1.322 0 2.398-.371 3.228-1.113.83-.742 1.245-1.8 1.245-3.173V160.46h1.31zm15.368 14.134c-.36.522-1.016 1.008-1.967 1.46-.95.452-2.15.677-3.597.677-1.865 0-3.395-.635-4.588-1.906-1.194-1.27-1.79-2.915-1.79-4.935v-2.941c0-1.983.567-3.6 1.702-4.848 1.134-1.248 2.605-1.873 4.412-1.873 1.726 0 3.075.432 4.049 1.295.973.863 1.536 1.985 1.69 3.365l-.021.067h-1.223c-.191-1.073-.643-1.941-1.355-2.606-.713-.665-1.76-.997-3.14-.997-1.44 0-2.598.522-3.476 1.564-.877 1.043-1.316 2.38-1.316 4.01v2.964c0 1.675.466 3.048 1.399 4.12.933 1.073 2.152 1.609 3.657 1.609 1.065 0 1.97-.15 2.716-.447.745-.297 1.254-.622 1.526-.974v-4.187h-4.264v-1.124h5.586v5.707zm-35.7 27.022h2.784c2.123 0 3.732-.53 4.827-1.592 1.095-1.062 1.643-2.427 1.643-4.097 0-1.816-.514-3.265-1.543-4.346-1.028-1.082-2.557-1.623-4.587-1.623-1.869 0-3.401.551-4.596 1.653-1.196 1.102-1.793 2.554-1.793 4.356h-2.244l-.04-.12c-.066-2.27.728-4.16 2.384-5.668 1.656-1.51 3.752-2.264 6.29-2.264 2.603 0 4.677.715 6.219 2.144 1.542 1.428 2.313 3.411 2.313 5.948 0 1.376-.427 2.668-1.282 3.876-.854 1.209-2.056 2.107-3.605 2.694 1.816.521 3.175 1.4 4.076 2.634.902 1.236 1.352 2.694 1.352 4.377 0 2.59-.838 4.627-2.514 6.11-1.675 1.482-3.829 2.223-6.46 2.223-2.55 0-4.74-.725-6.57-2.174-1.829-1.449-2.71-3.462-2.643-6.039l.04-.12h2.243c0 1.856.644 3.372 1.933 4.547 1.289 1.175 2.955 1.763 4.998 1.763 2.07 0 3.685-.538 4.847-1.613 1.162-1.075 1.743-2.614 1.743-4.617 0-2.043-.608-3.555-1.823-4.537-1.215-.981-2.951-1.472-5.208-1.472h-2.784v-2.043zm35.874 4.567c0 3.766-.815 6.663-2.444 8.693-1.629 2.03-3.892 3.045-6.79 3.045-2.884 0-5.151-1.019-6.8-3.055-1.65-2.036-2.474-4.93-2.474-8.683v-6.51c0-3.752.815-6.65 2.444-8.693 1.629-2.043 3.892-3.065 6.79-3.065s5.168 1.022 6.81 3.065c1.643 2.043 2.464 4.94 2.464 8.693v6.51zm-2.404-6.91c0-2.992-.587-5.292-1.762-6.901-1.175-1.61-2.878-2.414-5.108-2.414-2.23 0-3.926.805-5.088 2.414-1.161 1.61-1.742 3.91-1.742 6.9v7.271c0 2.965.59 5.265 1.772 6.9 1.182 1.637 2.881 2.455 5.098 2.455s3.91-.815 5.078-2.444c1.168-1.63 1.752-3.933 1.752-6.91v-7.272z"/></g><path fill-opacity=".2" d="M37.5 243.5H345v2H37.5z"/><g opacity=".4"><path d="M131.513 279.027h-7.348l-1.653 4.473h-1.366l6.092-16.04h1.245l6.048 16.04h-1.366l-1.652-4.473zm-6.908-1.179h6.478l-3.195-8.68h-.066l-3.217 8.68zm23.598-10.388v10.873c0 1.748-.534 3.085-1.603 4.01-1.069.926-2.462 1.388-4.18 1.388-1.697 0-3.07-.464-4.121-1.393-1.05-.93-1.575-2.264-1.575-4.005V267.46h1.322v10.873c0 1.366.404 2.422 1.211 3.167.808.746 1.862 1.119 3.162 1.119 1.322 0 2.398-.371 3.228-1.113.83-.742 1.245-1.8 1.245-3.173V267.46h1.31zm15.368 14.134c-.36.522-1.015 1.008-1.966 1.46-.951.452-2.15.677-3.597.677-1.866 0-3.395-.635-4.589-1.906-1.193-1.27-1.79-2.915-1.79-4.935v-2.941c0-1.983.567-3.6 1.702-4.848 1.135-1.248 2.606-1.873 4.412-1.873 1.726 0 3.076.432 4.049 1.295.973.863 1.537 1.985 1.691 3.365l-.022.067h-1.223c-.19-1.073-.642-1.941-1.355-2.606-.712-.665-1.759-.997-3.14-.997-1.44 0-2.598.522-3.475 1.564-.878 1.043-1.317 2.38-1.317 4.01v2.964c0 1.675.466 3.048 1.4 4.12.932 1.073 2.151 1.609 3.657 1.609 1.065 0 1.97-.15 2.715-.447.746-.297 1.254-.622 1.526-.974v-4.187h-4.263v-1.124h5.585v5.707zm-22.56 31.589c0 3.766-.815 6.663-2.444 8.693-1.629 2.03-3.892 3.045-6.79 3.045-2.884 0-5.151-1.019-6.8-3.055-1.65-2.036-2.474-4.93-2.474-8.683v-6.51c0-3.752.815-6.65 2.444-8.693 1.629-2.043 3.892-3.065 6.79-3.065s5.168 1.022 6.81 3.065c1.643 2.043 2.464 4.94 2.464 8.693v6.51zm-2.404-6.91c0-2.992-.587-5.292-1.762-6.901-1.175-1.61-2.878-2.414-5.108-2.414-2.23 0-3.926.805-5.088 2.414-1.161 1.61-1.742 3.91-1.742 6.9v7.271c0 2.965.59 5.265 1.772 6.9 1.182 1.637 2.881 2.455 5.098 2.455s3.91-.815 5.078-2.444c1.168-1.63 1.752-3.933 1.752-6.91v-7.272zm15.344 16.625c2.216 0 3.979-.742 5.288-2.224 1.308-1.482 1.963-3.605 1.963-6.37v-2.924c-.708 1.229-1.66 2.177-2.855 2.844-1.195.668-2.527 1.002-3.996 1.002-2.657 0-4.797-.921-6.42-2.764-1.622-1.843-2.433-4.227-2.433-7.151 0-2.951.851-5.422 2.554-7.411 1.702-1.99 3.809-2.985 6.32-2.985 2.817 0 5.074.918 6.77 2.754 1.695 1.837 2.543 4.504 2.543 8.003v8.593c0 3.378-.894 5.999-2.684 7.861-1.79 1.863-4.14 2.795-7.05 2.795-1.042 0-2.087-.1-3.135-.3a14.046 14.046 0 0 1-2.995-.922l.441-2.003c.908.427 1.806.734 2.694.921.888.187 1.886.28 2.995.28zm.4-9.695c1.736 0 3.188-.444 4.357-1.332 1.168-.888 2-1.986 2.494-3.295v-3.085c0-2.764-.605-4.877-1.813-6.34-1.209-1.462-2.848-2.193-4.918-2.193-1.882 0-3.435.815-4.657 2.444-1.221 1.63-1.832 3.599-1.832 5.909 0 2.243.574 4.12 1.722 5.628 1.149 1.51 2.698 2.264 4.647 2.264z"/><text transform="translate(165 295.5)" font-size="45.124" font-family="Roboto-Light, Roboto" font-weight="300"><tspan x=".353" y="47.347">—</tspan></text><path d="M223.812 279.027h-7.348l-1.652 4.473h-1.366l6.092-16.04h1.245l6.048 16.04h-1.366l-1.653-4.473zm-6.907-1.179h6.478l-3.195-8.68h-.066l-3.217 8.68zm23.598-10.388v10.873c0 1.748-.535 3.085-1.603 4.01-1.069.926-2.463 1.388-4.181 1.388-1.697 0-3.07-.464-4.12-1.393-1.05-.93-1.576-2.264-1.576-4.005V267.46h1.322v10.873c0 1.366.404 2.422 1.212 3.167.808.746 1.862 1.119 3.162 1.119 1.322 0 2.398-.371 3.228-1.113.83-.742 1.245-1.8 1.245-3.173V267.46h1.31zm15.368 14.134c-.36.522-1.016 1.008-1.967 1.46-.95.452-2.15.677-3.597.677-1.865 0-3.395-.635-4.588-1.906-1.194-1.27-1.79-2.915-1.79-4.935v-2.941c0-1.983.567-3.6 1.702-4.848 1.134-1.248 2.605-1.873 4.412-1.873 1.726 0 3.075.432 4.049 1.295.973.863 1.536 1.985 1.69 3.365l-.021.067h-1.223c-.191-1.073-.643-1.941-1.355-2.606-.713-.665-1.76-.997-3.14-.997-1.44 0-2.598.522-3.476 1.564-.877 1.043-1.316 2.38-1.316 4.01v2.964c0 1.675.466 3.048 1.399 4.12.933 1.073 2.152 1.609 3.657 1.609 1.065 0 1.97-.15 2.716-.447.745-.297 1.254-.622 1.526-.974v-4.187h-4.264v-1.124h5.586v5.707zM226.27 324.64h-2.404v-26.8l-7.41.861v-1.683l9.814-1.762v29.384zm19.39-1.742c2.216 0 3.979-.742 5.287-2.224 1.309-1.482 1.963-3.605 1.963-6.37v-2.924c-.707 1.229-1.659 2.177-2.854 2.844-1.195.668-2.527 1.002-3.996 1.002-2.657 0-4.797-.921-6.42-2.764-1.622-1.843-2.433-4.227-2.433-7.151 0-2.951.85-5.422 2.553-7.411 1.703-1.99 3.81-2.985 6.32-2.985 2.818 0 5.074.918 6.77 2.754 1.696 1.837 2.544 4.504 2.544 8.003v8.593c0 3.378-.895 5.999-2.684 7.861-1.79 1.863-4.14 2.795-7.05 2.795-1.042 0-2.087-.1-3.135-.3a14.046 14.046 0 0 1-2.995-.922l.44-2.003c.909.427 1.807.734 2.695.921.888.187 1.886.28 2.994.28zm.4-9.695c1.736 0 3.188-.444 4.356-1.332 1.169-.888 2-1.986 2.494-3.295v-3.085c0-2.764-.604-4.877-1.812-6.34-1.209-1.462-2.848-2.193-4.918-2.193-1.883 0-3.435.815-4.657 2.444-1.222 1.63-1.833 3.599-1.833 5.909 0 2.243.574 4.12 1.723 5.628 1.148 1.51 2.697 2.264 4.647 2.264z"/></g></g></svg>