<svg width="361" height="80" viewBox="0 0 361 80" version="1.1" xmlns="http://www.w3.org/2000/svg" xmlns:xlink="http://www.w3.org/1999/xlink"><title>Page 1</title><defs><path id="a" d="M82.932 79.754h82.023V.8H.91v78.954h82.022z"/></defs><g stroke="none" stroke-width="1" fill="none" fill-rule="evenodd"><path d="M.502 66.412l4.722-8.348c.804-1.31 2.415-1.245 3.418-.606.402.2 8.598 5.533 15.23 5.533 4.02 0 7.896-2.515 7.896-6.036 0-4.222-4.48-7.444-11.312-10.16C11.816 43.38 0 36.637 0 24.567c0-9.96 8.7-20.018 24.173-20.018 10.45 0 19.452 5.332 22.465 7.548 1.43 1.13 1.202 2.2.605 3.216l-5.126 7.744c-1.203 1.737-2.11 1.997-3.416 1.31-.903-.505-9.2-6.037-15.33-6.037-3.618 0-7.294 2.414-7.294 5.13 0 3.722 3.98 6.538 11.916 9.758 7.837 3.118 21.26 9.254 21.26 22.93 0 10.364-9.905 20.824-24.677 20.824-13.06 0-21.26-5.432-23.57-7.744C0 68.223-.302 67.818.502 66.412m81.161-5.332c11.355 0 19.593-8.954 19.593-20.418 0-11.37-8.238-20.32-19.593-20.32h-9.646V61.08h9.646zM56.343 7.47c0-1.01.804-1.916 1.807-1.916h24.517c19.392 0 35.27 15.795 35.27 35.108 0 19.512-15.878 35.305-35.27 35.305H58.15c-1.003 0-1.808-.906-1.808-1.912V7.47zm113.299 35.704h.1V7.47c0-1.01.802-1.917 1.91-1.917h12.055c1.005 0 1.91.906 1.91 1.916v67.69c0 1.007-.905 1.812-1.91 1.812h-1.166c-1.277 0-2.162-.92-2.36-1.12l-39.076-39.317h-.1v37.52a1.91 1.91 0 0 1-1.91 1.91H127.14c-1.004 0-1.91-.904-1.91-1.91l-.1-67.695c0-1.006.906-1.823 1.91-1.823h.744c1.868 0 2.42.735 3.305 1.517l38.555 37.12z" fill="#FFF"/><g transform="translate(195.438 -.554)"><mask id="b" fill="#fff"><use xlink:href="#a"/></mask><path d="M40.183 79.754c-10.505 0-20.367-4.1-27.772-11.547C4.995 60.75.91 50.83.91 40.277c0-10.554 4.084-20.472 11.5-27.928C19.817 4.9 29.68.8 40.184.8c10.507 0 20.37 4.1 27.775 11.55l42.747 42.988a20.977 20.977 0 0 0 14.98 6.228 20.98 20.98 0 0 0 14.974-6.228l-.004.002a21.243 21.243 0 0 0 6.207-15.064c0-5.685-2.204-11.035-6.205-15.06-3.997-4.016-9.314-6.227-14.976-6.227-5.666 0-10.985 2.21-14.976 6.227l-6.95 6.967c-.712.714-1.92.785-2.63.074l-10.14-10.22c-.714-.714-.785-1.924-.074-2.634l6.995-7.056C105.317 4.9 115.18.8 125.682.8c10.504 0 20.367 4.1 27.77 11.547 7.42 7.458 11.503 17.378 11.503 27.93 0 10.554-4.084 20.472-11.502 27.93-7.404 7.446-17.267 11.547-27.77 11.547-10.506 0-20.37-4.1-27.774-11.547L55.157 25.213a20.975 20.975 0 0 0-14.975-6.227c-5.66 0-10.977 2.212-14.974 6.227A21.237 21.237 0 0 0 19 40.278c0 5.685 2.203 11.035 6.205 15.06a20.982 20.982 0 0 0 14.976 6.228 20.96 20.96 0 0 0 14.975-6.23l6.95-6.967c.713-.713 1.922-.784 2.63-.074l10.142 10.22c.713.715.784 1.924.073 2.635l-6.995 7.057c-7.41 7.446-17.27 11.547-27.775 11.547" fill="#9FD801" mask="url(#b)"/></g></g></svg>