<svg width="170" height="170" viewBox="0 0 170 170" version="1.1" xmlns="http://www.w3.org/2000/svg"><title>logo-footer</title><g transform="translate(.527)" stroke="none" stroke-width="1" fill="none" fill-rule="evenodd"><ellipse fill="#FFF" cx="84.282" cy="84.742" rx="84.282" ry="84.742"/><path d="M130.959 75.63c0-26.538-21.274-48.053-47.517-48.053-26.243 0-47.517 21.515-47.517 48.052 0 14.068 5.979 26.722 15.506 35.51.066 4.18.91 8.238 2.512 12.066a32.269 32.269 0 0 0 6.86 10.29 31.894 31.894 0 0 0 10.176 6.939 31.497 31.497 0 0 0 12.463 2.546c4.322 0 8.515-.857 12.463-2.546a31.894 31.894 0 0 0 10.176-6.938 32.264 32.264 0 0 0 6.86-10.295 32.393 32.393 0 0 0 2.512-12.061c9.528-8.79 15.506-21.443 15.506-35.51zm-85.772 0c0-21.366 17.128-38.687 38.255-38.687 21.127 0 38.255 17.321 38.255 38.686s-17.128 38.684-38.255 38.684c-21.127 0-38.255-17.319-38.255-38.684zm55.26 52.162c-4.542 4.593-10.582 7.125-17.005 7.125-6.423 0-12.461-2.527-17.004-7.12a24.253 24.253 0 0 1-6.015-10.123 46.897 46.897 0 0 0 23.02 6.005c8.35 0 16.199-2.18 23.018-6.006a24.185 24.185 0 0 1-6.015 10.12z" fill="#4B4B42"/><path d="M117.111 75.795c0-3.803-3.048-6.885-6.81-6.885-.474 0-.94.05-1.39.143a6.897 6.897 0 0 0 2.714-5.498c0-3.804-3.048-6.886-6.808-6.886-2.32 0-4.368 1.174-5.596 2.966.139-.55.212-1.123.212-1.717 0-3.802-3.049-6.884-6.808-6.884-3.762 0-6.81 3.082-6.81 6.884v35.84c0 3.801 3.048 6.885 6.81 6.885 3.76 0 6.808-3.084 6.808-6.885a6.9 6.9 0 0 0-.214-1.716c1.23 1.792 3.277 2.965 5.598 2.965 3.76 0 6.807-3.082 6.807-6.885a6.899 6.899 0 0 0-2.89-5.628c.504.12 1.029.185 1.568.185 3.761 0 6.81-3.082 6.81-6.884zm-26.686 9.977V65.427l17.427 10.172-17.427 10.173z" fill="#4B4B42"/><path d="M73.669 75.882c0 2.946-2.357 5.331-5.27 5.331-2.913 0-5.27-2.385-5.27-5.33 0-2.945 2.357-5.332 5.27-5.332 2.913 0 5.27 2.387 5.27 5.331" fill="#FF634C"/><path d="M54.383 70.263c-1.049 0-2.005-.425-2.005-2.02-1.289 1.324-2.787 4.5-2.787 7.203 0 1.493.48 2.983 1.3 4.135.628.89 1.458 1.667 2.424 2.173.05.025.1.073.15.099.017.009.033.026.05.034.5.245 1.035.439 1.596.557l.005-.014a6.684 6.684 0 0 0 2.888-.051 6.905 6.905 0 0 0-2.889 5.629c0 3.802 3.047 6.884 6.808 6.884 2.318 0 4.365-1.173 5.593-2.964a6.993 6.993 0 0 0-.216 1.715c0 3.802 3.137 6.886 6.898 6.886 3.76 0 6.89-3.084 6.89-6.886v-35.84c0-3.802-3.13-6.884-6.89-6.884s-6.842 3.082-6.842 6.884c0 .594.05 1.168.189 1.717a6.803 6.803 0 0 0-5.609-2.966c-3.759 0-6.815 3.175-6.815 6.978 0 .831.075 1.31.385 2.423h12.852c5.443 0 9.854 4.385 9.854 9.888 0 5.504-4.411 9.934-9.854 9.934h.042c-5.407 0-9.784-4.428-9.784-9.894a9.93 9.93 0 0 1 1.73-5.62h-5.963" fill="#4B4B42"/></g></svg>