<svg width="599" height="245" viewBox="0 0 599 245" version="1.1" xmlns="http://www.w3.org/2000/svg"><title>rodesk-jumbo-ship</title><g fill="#231F20" stroke="none" stroke-width="1" fill-rule="evenodd" opacity=".3"><path d="M599.002 213.432a.9.9 0 0 1-1.801 0v-25.037h.9a.9.9 0 0 0 .9-.897v25.934z"/><path d="M598.101 186.601a.9.9 0 0 1 .9.898.9.9 0 0 1-.9.897h-.9v-1.795h.9zM598.101 178.506v-.448h-.45a.45.45 0 0 1 .45.448zm.826-.807c.019.018.019.054.038.09s.019.09.019.125c.018.053.018.09.018.143a.889.889 0 0 1-.282.646.903.903 0 0 1-.619.252.917.917 0 0 1-.657-.288l-.563-.61-.844-.897h2.064c.188 0 .357.054.507.143l.15.144a.76.76 0 0 1 .169.252z"/><path d="M597.2 186.601v1.795H492.322a.9.9 0 0 0 .901-.897v-.898h103.979zM596.881 178.057H493.222a.901.901 0 0 0-.9-.897h103.715l.844.897z"/><path d="M586.147 169.766v-.448a.45.45 0 0 1-.45.448h.45zm.77-3.662l-.77-.825v1.113c0-.18.113-.324.282-.396a.451.451 0 0 1 .488.108zm-6.925 3.662v-.897h5.255v-3.59c0-.376.225-.7.582-.843a.885.885 0 0 1 .3-.054c.244 0 .507.09.676.288l11.803 12.634a.975.975 0 0 0-.507-.143h-2.064l-8.99-9.602v2.207a.901.901 0 0 1-.9.898h-6.605l-.038-.108a.902.902 0 0 0 .488-.79zM588.606 160.343v-.448a.45.45 0 0 1-.45.448h.45zm0-15.74v-.448h-.45a.45.45 0 0 1 .45.448zm-7.394-1.346h7.394a.9.9 0 0 1 .9.898v16.189a.901.901 0 0 1-.9.897h-7.394a.9.9 0 0 0 .9-.897v-.898h5.592v-14.394h-5.591v-.897a.9.9 0 0 0-.9-.898z"/><path d="M580.312 145.052h1.801v14.394h-1.801z"/><path d="M580.312 144.155h1.801v.898h-1.801zM582.113 144.155h-1.801a.901.901 0 0 1 1.8 0zM582.113 160.343a.901.901 0 0 1-1.801 0v-.898h1.8v.898zM579.092 159.446a.9.9 0 0 1 .9.898.9.9 0 0 1-.9.897h-.9v-.897a.9.9 0 0 1 .9-.898z"/><path d="M579.992 161.24v7.628h-1.35a.77.77 0 0 0-.45.125v-7.753h.9a.9.9 0 0 0 .9-.897.9.9 0 0 0-.9-.898h1.22v.898c0 .502.413.897.9.897h-1.22zM579.992 169.766a.9.9 0 0 1-.488.79.783.783 0 0 1-.413.108.77.77 0 0 1-.45-.126v-.323a.45.45 0 0 1 .45-.448h.901z"/><path d="M578.642 168.869h1.35v.897h-1.35v.771a.876.876 0 0 1-.45-.772v-.772a.778.778 0 0 1 .45-.124zM565.28 159.446h13.812a.9.9 0 0 0-.9.898v.897H565.28v-1.795zM578.642 173.015h-14.263c.489 0 .9-.414.9-.898H578.64v-1.579c.132.09.282.126.45.126.15 0 .301-.036.414-.108l.038.108v1.453a.913.913 0 0 1-.9.898z"/><path d="M578.191 172.117h-12.91v-.88l12.46-.017v-1.454c0-.341.188-.628.45-.772v.772c0 .341.188.628.45.772v1.13a.45.45 0 0 1-.45.45zM565.281 144.155h15.031v.898h-15.031zM563.479 171.238h1.801v.88h-1.801zM563.479 161.24h1.801v9.997h-1.801z"/><path d="M563.479 159.446h1.801v1.795h-1.801zM563.479 145.052h1.801v14.394h-1.801zM563.479 172.117h1.8a.913.913 0 0 1-.9.898.913.913 0 0 1-.9-.898z"/><path d="M563.479 144.155h1.801v.898h-1.801zM564.38 143.257a.9.9 0 0 1 .9.898h-1.801c0-.502.413-.898.9-.898z"/><path d="M564.38 143.257h16.832a.9.9 0 0 0-.9.898H565.28a.902.902 0 0 0-.902-.898z"/><path d="M556.817 143.257h7.562a.9.9 0 0 0-.9.898h-5.762a.9.9 0 0 0-.9-.898zM563.479 159.446v1.795h-6.662a.9.9 0 0 0 .9-.897v-.898h5.762zM557.718 144.155h5.761v.898h-5.761zM554.265 172.476a.905.905 0 0 0 .864-.898v-.772l2.758.432h5.593v.88c0 .483.413.897.9.897h-6.624l-3.49-.54z"/><path d="M557.718 159.446v.898a.901.901 0 0 1-1.8 0v-.898h1.8zM555.916 145.052h1.801v14.394h-1.801z"/><path d="M555.916 144.155h1.801v.898h-1.801zM557.718 144.155h-1.8a.901.901 0 0 1 1.8 0zM555.129 161.24v-.897a.9.9 0 0 0-.9-.898h1.688v.898c0 .502.414.897.901.897h-1.69zM555.129 161.24v9.566l-1.802-.286v-9.28z"/><path d="M555.129 160.343v.897h-1.802v-.897a.901.901 0 0 1 1.802 0zM555.129 171.578c0 .484-.395.88-.864.898l-.337-.054c-.02 0-.038-.018-.038-.018a.87.87 0 0 1-.563-.826v-1.06l1.802.288v.772z"/><path d="M554.228 159.446a.9.9 0 0 0-.9.898v.897h-3.66a.9.9 0 0 0 .901-.897v-.898h3.66zM550.568 145.052v14.394h-.9v-14.842a.45.45 0 0 1 .45-.448h5.798v.897h-5.348z"/><path d="M550.568 160.343a.9.9 0 0 1-1.8 0h.9v-.897h.9v.897z"/><path d="M549.668 159.895a.45.45 0 0 1-.45.448h-.45c0-.502.413-.898.9-.898v.45zM548.767 160.343c0 .502.414.897.9.897h-3.564v8.167l-.9-.144v-8.471a.45.45 0 0 1 .45-.448h3.114v-.001z"/><path d="M544.3 160.343c0-.502.414-.898.901-.898h3.565v-15.291c0-.502.414-.898.9-.898h7.15a.9.9 0 0 0-.9.898H549.666V159.444a.9.9 0 0 0-.9.898H545.201V169.26l-.901-.143v-8.774zM544.3 169.766v-.646l.901.144.9.144v.36a.901.901 0 0 1-1.8-.002zM598.101 178.955c.226 0 .45-.09.62-.252a.892.892 0 0 0 .28-.646v9.44a.9.9 0 0 0-.9-.897h-.9v-7.645H493.222v7.645h-.9v-7.645a.9.9 0 0 0 .9-.898h103.66l.562.61c.169.18.413.288.657.288z"/><path d="M492.772 178.057h.45a.901.901 0 0 1-.9.898v-.449a.45.45 0 0 1 .45-.449zM492.321 178.955v7.645a.9.9 0 0 0-.9.898v-8.543h.9z"/><path d="M492.321 178.506v.449h-.9v-.898a.9.9 0 0 1 1.801 0h-.9v.45z"/><path d="M120.45 177.16h371.871a.9.9 0 0 0-.9.897v.898h-370.97a.9.9 0 0 0 .9-.898.9.9 0 0 0-.9-.897zM493.222 187.499a.901.901 0 0 1-1.801 0 .9.9 0 0 1 .9-.898h.901v.898zM463.31 43.2a.843.843 0 0 0 .619-.682h.038v4.308a.78.78 0 0 0-.132-.448.983.983 0 0 0-.77-.449V43.273l.245-.073z"/><path d="M463.93 42.517a.842.842 0 0 1-.62.682l-.243.072v-.844a.61.61 0 0 1 .038-.18l.3-.735c.263.09.45.305.526.592a.794.794 0 0 1-.001.413zM463.742 9.404l.601 28.106zM462.953 47.22v-.143c0-.09.056-.18.113-.252v-.898c.3.018.601.18.77.449a.785.785 0 0 1 .132.448.875.875 0 0 1-.113.431.86.86 0 0 1-.338.342l-.582.341.018-.718zM463.066 43.272l-.9.232v-.915l.9-.25v.09z"/><path d="M462.616 46.053a.925.925 0 0 1 .375-.126l-.037 1.15v.143l-.038.736-.919.538.094-2.117.525-.324z"/><path d="M462.953 47.22l-.019.718-.018.018zM463.779 156.951c-.038.234-.207.396-.45.396h.45v-.396zm0-3.804v-.448h-.45a.45.45 0 0 1 .45.448zm-5.141-.45l-.094-.897h5.235a.9.9 0 0 1 .9.898v4.648a.901.901 0 0 1-.9.897h-4.503l-.094-.897-.113-.898h3.81v-2.853h-4.129l-.112-.897zM462.934 47.938l-2.063 56.481 2.045-56.463zM463.066 42.338l-.9.252v-.252c0-.125.019-.233.075-.341l.168-.412.413-.108a.909.909 0 0 1 .582.036l-.3.736-.038.09zM462.991 45.927a.925.925 0 0 0-.375.126l-.525.324.075-2.28v-.592l.9-.233v.843l-.075 1.812z"/><path d="M462.578 9.422l-4.973 33.49-.938.252 5.085-34.262a.455.455 0 0 1 .45-.376h1.089c.224 0 .394.162.431.376l.02.054v.448l.6 28.106.038 1.598a.61.61 0 0 1-.038.18l-.938 2.225a.909.909 0 0 0-.582-.036l-.413.108 1.07-2.55-.638-29.613h-.263z"/><path d="M472.167 73.585a.43.43 0 0 1-.375.43l.375-.053v-.377zm0-2.298v-.466l-.45.018c.113 0 .224.054.32.126.074.09.13.197.13.322zm-2.439-.358l1.502-.072-1.502.072zM468.658.898a.47.47 0 0 1 .318.143.405.405 0 0 1 .113.27l.02-.413h-.451zm-.113 20.98l.169-6.21-.169 6.21zm.189-7.108l.356-13.406-.356 13.406zm-1.615 60.035l-.356.054-.019.342a.447.447 0 0 1 .375-.396zm.113-3.768l.47-.018a.423.423 0 0 1-.32-.126.424.424 0 0 1-.132-.324l-.018.468zm-6.211-69.242l-8.951 33.328a.992.992 0 0 0-.564-.18l-1.256.019L459.463.664a.875.875 0 0 1 .864-.664h8.782a.93.93 0 0 1 .638.27c.169.18.263.413.263.645l-1.858 69.188 3.978-.18c.263-.053.488.09.657.252a.939.939 0 0 1 .282.646v3.14a.885.885 0 0 1-.751.88l-4.691.79-1.596 31.66-4.804 27.028a.901.901 0 0 0-.9-.897h-.751l4.672-26.347 1.615-32.27a.878.878 0 0 1 .75-.825l4.655-.772v-1.454l-3.998.18a.927.927 0 0 1-.657-.251.902.902 0 0 1-.281-.664l1.858-69.224h-7.17zM460.57 169.46l-.112-.897h80.259l3.584.556v.646a.901.901 0 0 0 1.8 0v-.36l7.226 1.114v1.059c0 .376.225.7.563.826l-13.305-2.064h-80.184l.019-.018a.913.913 0 0 0 .168-.664l-.018-.197z"/><path d="M460.458 168.563l.112.898h-1.8l-.095-.898zM459.05 170.34a.741.741 0 0 1-.226-.466l-.056-.413h1.801l.02.197a.918.918 0 0 1-.17.664l-.018.018h-1.351zM459.444 134.157l.132-.735h.75a.9.9 0 0 1 .901.897v.054l-.019.108a.891.891 0 0 1-.881.736c-.02 0-.132 0-.15-.018a.831.831 0 0 1-.582-.36.864.864 0 0 1-.169-.52c0-.054.018-.108.018-.162zm.883.162h-.45a.45.45 0 0 1 .45.448v-.448zM458.675 168.563l-1.257-10.948c.093.36.45.628.844.628h1.014l1.182 10.32h-1.783z"/><path d="M458.262 158.243c-.394 0-.75-.27-.844-.628l-.038-.18-.02-.161a.902.902 0 0 1 .901-.826h.807l.113.898.094.897h-1.013zM459.05 170.34h-25.277a.735.735 0 0 0 .225-.466l.056-.413h24.713l.056.413c.021.179.096.34.227.466zM458.675 168.563l.094.898h-24.714l.093-.898zM462.166 42.589l-4.71 1.292.15-.97 4.803-1.327-.168.412a.708.708 0 0 0-.075.341v.252zM457.399 44.258l.057-.376 4.71-1.293v.915l-4.936 1.365zM461.997 48.494l-6.794 4.003V52.1l.563-2.01 6.325-3.714zM456.874 152.913c-.038-.072-.038-.144-.038-.215v-.018a.898.898 0 0 1 .9-.88h.807l.094.898.112.897h-1.012a.89.89 0 0 1-.863-.682zM457.605 42.912l-.15.97-.938.251.02-.053.13-.916z"/><path d="M456.874 152.913a.89.89 0 0 0 .863.682h1.013l.32 2.853h-.807c-.469 0-.863.36-.9.826l-.49-4.36zM457.23 44.87l-1.464 5.222-1.107.663 1.615-5.761c.074.018.168.036.243.036.075 0 .15-.018.244-.036l.469-.125z"/><path d="M456.517 44.15v-.018l.939-.251-.056.377-.17.61-.468.126c-.094.018-.169.036-.244.036a1.14 1.14 0 0 1-.243-.036l.242-.844z"/><path d="M455.673 43.882c.055-.288.3-.52.6-.61l.394-.108-.132.916-.019.053v.018l-.243.844a.833.833 0 0 1-.62-.628.864.864 0 0 1 .02-.485z"/><path d="M456.274 43.272c-.301.09-.545.323-.6.61h-.02L460.929 8.4a.878.878 0 0 1 .881-.772h1.914a.91.91 0 0 1 .9.88l.658 30.672a.78.78 0 0 1-.075.36l-1.238 2.978h-.038a.76.76 0 0 0 0-.412.82.82 0 0 0-.525-.592l.938-2.225.038-.09v-.09l-.038-1.598-.6-28.107v-.448c0-.018 0-.036-.02-.054v-.377H461.81l-.056.376-5.085 34.262-.394.109z"/><path d="M455.673 43.882a.844.844 0 0 0-.02.484c.075.324.32.556.62.628l-1.615 5.761-.806.467a.885.885 0 0 0-.414.52l2.215-7.861h.02zM455.241 102.014l-.544-28.59-.375-20.532c.169 0 .3-.036.431-.126l.45-.27.92 49.069h1.614a.9.9 0 0 1 .9.897v4.038h1.259l2.101-58.006.92-.538-2.046 56.463-.094 2.549v.018c-.038.233-.207.413-.45.413h-2.14a.45.45 0 0 1-.45-.448v-4.487H455.674a.438.438 0 0 1-.433-.45zM455.598 139.453a.9.9 0 0 1 1.576.592.9.9 0 0 1-.9.897h-.788l-.094-.79c0-.036-.019-.071-.019-.107a.86.86 0 0 1 .225-.592z"/><path d="M454.322 52.89l-.02-.825c0-.054 0-.09.02-.144l.337-1.166 1.107-.663-.563 2.01v.395l-.45.27a.718.718 0 0 1-.431.124z"/><path d="M454.34 102.48l-.938-50.469c0 .144.038.306.132.432.15.287.45.448.77.448h.019l.375 20.532.543 28.591v.448h2.064c.243.018.431.198.431.448v4.487H460.757l.019-.413v-.018l.094-2.549 2.064-56.48.582-.342a.86.86 0 0 0 .338-.342l-2.195 60.178a.895.895 0 0 1-.9.862h-3.022a.9.9 0 0 1-.9-.898v-4.038h-1.596a.904.904 0 0 1-.9-.877z"/><path d="M453.533 52.443a.731.731 0 0 1-.132-.432c0-.09.02-.18.038-.27a.875.875 0 0 1 .414-.52l.806-.466-.337 1.166c-.02.054-.02.09-.02.144l.02.826h-.02a.856.856 0 0 1-.769-.448zM455.372 140.045h-17.751a.87.87 0 0 0-.225-.592c-.15-.18-.356-.27-.582-.306h19.46a.88.88 0 0 0-.676.306.866.866 0 0 0-.226.592zM455.485 140.942h-17.977l.094-.79c0-.036.019-.071.019-.107h17.752c0 .036.019.071.019.107l.093.79zM452.07 35.123c.206.18.337.43.337.718a.888.888 0 0 1-.77.88l.433-1.598z"/><path d="M451.638 36.72l-13.98 52.067 1.127-11.127 10.977-40.903 1.764-.018c.037 0 .074 0 .112-.018z"/><path d="M451.525 36.739l-1.764.018.244-.898.245-.897 1.256-.018c.207 0 .414.072.564.18l-.432 1.597c-.038.018-.075.018-.113.018z"/><path d="M450.25 34.962l-.244.897-7 .072c0-.448-.356-.843-.9-.897l8.144-.072z"/><path d="M450.005 35.86l-.244.897-6.83.072.075-.808v-.09l6.999-.072zM449.35 126.512c0 .323.262.556.618.556s.638-.251.638-.556c0-.305-.3-.574-.638-.574-.337 0-.619.25-.619.574zm-.902 0c0-.808.675-1.471 1.52-1.471.112 0 .206.018.3.036.206.035.394.107.544.215.168.108.318.252.43.412.076.108.133.216.17.342a.292.292 0 0 1 .056.18c.019.09.037.18.037.287 0 .808-.693 1.454-1.538 1.454-.844-.001-1.52-.647-1.52-1.455zM460.327 139.596a.45.45 0 0 1-.45.449h.45v-.449zm-.902-4.38h-24.732a.9.9 0 0 0 .9-.897h23.832c0 .198.056.36.169.52a.829.829 0 0 0 .582.36c.019.018.132.018.15.018a.891.891 0 0 0 .881-.736l.02-.108v5.672a.901.901 0 0 1-.901.897h-3.04l1.257 10.858h-.806a.897.897 0 0 0-.9.88l-1.351-11.738h.788a.9.9 0 0 0 .9-.897.9.9 0 0 0-.9-.898h3.152v-3.93z"/><path d="M459.425 134.32h-23.831v-.898h23.982l-.132.735c0 .054-.019.108-.019.162zM448.448 126.512c0 .808.675 1.454 1.52 1.454.844 0 1.537-.646 1.537-1.454 0-.108-.018-.198-.037-.287a.298.298 0 0 0-.056-.18 1.185 1.185 0 0 0-.17-.342 1.53 1.53 0 0 0-.43-.412 1.435 1.435 0 0 0-.544-.215c-.094-.018-.188-.036-.3-.036-.845 0-1.52.664-1.52 1.472zm1.52 2.351c-1.332 0-2.42-1.059-2.42-2.35 0-1.31 1.087-2.37 2.42-2.37 1.35 0 2.44 1.06 2.44 2.37 0 1.291-1.09 2.35-2.44 2.35zM447.453 103.755c-.77 0-1.407.574-1.407 1.292 0 .718.638 1.292 1.407 1.292.788 0 1.427-.574 1.427-1.292 0-.718-.62-1.292-1.427-1.292zm0 3.033c-1.032 0-1.858-.772-1.858-1.741 0-.951.826-1.741 1.858-1.741 1.051 0 1.877.772 1.877 1.74 0 .97-.844 1.742-1.877 1.742z"/><path d="M445.595 105.047c0 .97.826 1.741 1.858 1.741 1.033 0 1.877-.772 1.877-1.741 0-.97-.826-1.741-1.877-1.741-1.032 0-1.858.79-1.858 1.74zm-.45 0c0-1.203 1.032-2.19 2.308-2.19 1.314 0 2.327.97 2.327 2.19 0 1.203-1.05 2.19-2.327 2.19-1.276 0-2.308-.987-2.308-2.19z"/><path d="M447.453 102.858c-1.276 0-2.308.987-2.308 2.189 0 1.203 1.032 2.19 2.308 2.19 1.276 0 2.327-.988 2.327-2.19 0-1.22-1.013-2.19-2.327-2.19zm-2.758 2.189c0-1.454 1.239-2.639 2.758-2.639 1.558 0 2.778 1.167 2.778 2.639 0 1.453-1.24 2.639-2.778 2.639-1.52 0-2.758-1.186-2.758-2.64z"/><path d="M444.245 105.047c0-1.705 1.444-3.087 3.208-3.087 1.801 0 3.228 1.364 3.228 3.087 0 1.705-1.445 3.087-3.228 3.087-1.764 0-3.208-1.382-3.208-3.087zm3.208-2.639c-1.52 0-2.758 1.185-2.758 2.639 0 1.453 1.239 2.639 2.758 2.639 1.539 0 2.778-1.186 2.778-2.64 0-1.47-1.22-2.638-2.778-2.638zM442.105 35.931h.9v.09l-.074.808H442.01l.094-.898z"/><path d="M442.011 36.829a.909.909 0 0 1-.806-.898v-.09c.019-.09.038-.18.075-.251.019-.036.019-.072.055-.108a.643.643 0 0 1 .132-.18.61.61 0 0 1 .282-.198c.038-.017.056-.017.094-.035a1.15 1.15 0 0 1 .262-.036c.544.054.9.448.9.897h-.9l-.094.899z"/><path d="M442.011 36.829H442.931l-4.147 40.83-1.464 5.439 4.691-46.27z"/><path d="M442.011 36.829l-4.69 46.269-1.464 5.437 5.348-52.604a.91.91 0 0 0 .806.898zM440.586 126.512c0-.808.676-1.471 1.52-1.471.845 0 1.539.663 1.539 1.471s-.676 1.454-1.539 1.454c-.845 0-1.52-.646-1.52-1.454zm.9 0c0 .323.263.556.62.556.356 0 .637-.251.637-.556 0-.323-.281-.574-.638-.574-.337 0-.619.25-.619.574z"/><path d="M439.684 126.512c0-1.31 1.088-2.369 2.421-2.369 1.35 0 2.44 1.06 2.44 2.37 0 1.309-1.07 2.35-2.44 2.35-1.332 0-2.42-1.059-2.42-2.35zm2.421-1.471c-.844 0-1.52.663-1.52 1.471s.676 1.454 1.52 1.454c.864 0 1.539-.646 1.539-1.454 0-.808-.694-1.471-1.539-1.471zM436.814 139.147a.919.919 0 0 1 .582.306c.15.161.225.377.225.592 0 .036-.02.071-.02.107l-.093.79h-.788a.9.9 0 0 1-.9-.897.9.9 0 0 1 .9-.898h.094zM437.32 83.097l1.464-5.438-1.126 11.127-.207.736a.859.859 0 0 1-.732.395h-.094a.945.945 0 0 1-.6-.322.977.977 0 0 1-.207-.664l.038-.396 1.464-5.438zM436.082 152.698c0 .071 0 .143-.019.197a.908.908 0 0 1-.881.7h-1.014l.225-1.795h.788c.488 0 .901.395.901.898zM434.693 133.422h.9v.898h-.9z"/><path d="M435.52 157.346a.901.901 0 0 0-.901-.898h-.788l.337-2.853h1.014a.907.907 0 0 0 .881-.7l-.544 4.45zM432.366 168.563l1.257-10.32h.995a.907.907 0 0 0 .881-.7l-1.35 11.02h-1.783zM433.792 133.422h.9v.898h-.9zM435.594 134.32a.901.901 0 0 1-1.801 0H435.594z"/><path d="M433.623 158.243l.207-1.795h.788a.9.9 0 0 1 .9.898c0 .072 0 .144-.019.197a.907.907 0 0 1-.881.7h-.995zM434.148 168.563l-.093.898h-1.801l.112-.898zM432.235 169.658a.815.815 0 0 0 .206.682l-172.452.018a.903.903 0 0 0 .77-.897h171.495l-.02.197z"/><path d="M432.366 168.563l-.112.898H260.757c0-.054-.019-.072-.019-.126l-.112-.772h171.74z"/><path d="M432.254 169.46h1.8l-.055.414a.74.74 0 0 1-.225.466h-1.333a.818.818 0 0 1-.206-.682l.019-.197zM431.072 140.045a.45.45 0 0 1-.45-.449v.449h.45zm-.45-5.277a.45.45 0 0 1 .45-.448h-.45v.448zm0 6.174a.9.9 0 0 1-.901-.897v-5.726c0-.502.413-.897.9-.897h3.172v.897c0 .502.413.898.9.898h-3.17v3.93h5.198a.9.9 0 0 0-.9.898.9.9 0 0 0 .9.897h.788l-1.427 11.756a.901.901 0 0 0-.9-.898h-.788l1.314-10.858h-5.087zM434.693 124.592a.45.45 0 0 1-.45.449h.45v-.449zm0 5.994v-.448h-.45a.449.449 0 0 1 .45.448zm-6.23-5.545c0-.503.413-.898.9-.898h4.429V96.324a1 1 0 0 1 .038-.233l2.027-7.556-.038.396a.965.965 0 0 0 .206.664c.15.18.357.287.601.322h.094c.32 0 .582-.162.732-.395l-1.858 6.927v28.59a.901.901 0 0 1-.9.898h-4.43v3.303h4.43a.9.9 0 0 1 .9.897v3.285H433.793v-2.387h-4.429a.9.9 0 0 1-.9-.898v-5.096h-.001zm.9 5.096h.45a.45.45 0 0 1-.45-.448v.448zm.45-5.096h-.45v.448a.45.45 0 0 1 .45-.448zM433.623 158.243h-4.26a.9.9 0 0 1-.9-.897v-4.648c0-.503.413-.898.9-.898h5.029l-.225 1.795h-3.903v2.853h3.565l-.206 1.795zm-3.81-.897a.456.456 0 0 1-.45-.396v.396h.45zM262.84 157.346h-3.715l-.132-.898h3.397v-2.853h-3.772l-.132-.897h4.354a.45.45 0 0 1 .45.448v3.804a.455.455 0 0 1-.45.396zM260.757 140.045a.901.901 0 0 1-1.8 0v-.898h.9c.45 0 .844.342.9.808v.09zM260.757 169.46h-1.8l-.113-.897h1.783l.112.772c0 .054.018.072.018.126zM259.857 134.32a.9.9 0 0 1 .9.897.901.901 0 0 1-.9.897h-.9v-.897a.9.9 0 0 1 .9-.898z"/><path d="M259.857 136.114a.9.9 0 0 0 .9-.897v4.738a.913.913 0 0 0-.9-.808h-.9v-3.033h.9zM259.82 170.358h-25.934a.741.741 0 0 0 .226-.467l.056-.43h24.788l.02.125a.903.903 0 0 0 .844.772zM259.125 157.346h4.166V152.698h-4.804l-.113-.898h4.917a.9.9 0 0 1 .9.898v4.648a.901.901 0 0 1-.9.897h-4.053l-.113-.897z"/><path d="M258.956 169.46h1.801c0 .449-.32.826-.77.898h-.169a.904.904 0 0 1-.845-.772l-.017-.125zM258.844 168.563l-1.502-11.038c.094.414.45.718.882.718h1.013l1.389 10.32h-1.782z"/><path d="M257.324 157.346a.9.9 0 0 1 .9-.898h.77l.132.898.113.897h-1.013a.908.908 0 0 1-.882-.718c-.02-.053-.02-.107-.02-.18zM257.83 135.217v-.898h2.027a.9.9 0 0 0-.9.898h-1.127zM258.844 168.563l.112.898h-24.788l.13-.898zM256.761 139.919a.89.89 0 0 0-.863-.772h3.058v.898h-2.176l-.019-.126zM256.93 136.114a.9.9 0 0 0 .9-.897h1.126v.897h-2.026zM259.857 140.942h-2.965l-.113-.897h2.176a.902.902 0 0 0 .902.897zM256.723 152.931l-.019-.126c-.019-.036-.019-.072-.019-.107v-.018a.898.898 0 0 1 .9-.88h.788l.113.898.132.897h-1.032a.874.874 0 0 1-.863-.664z"/><path d="M256.723 152.931c.094.394.45.664.864.664h1.032l.375 2.853h-.77a.9.9 0 0 0-.9.898l-.6-4.415zM256.91 118.31l.02.628zM256.874 115.008l.038 3.267zM256.48 119.171h-.45l-.02-.897h.9v.036l.02.628v.233H256.48z"/><path d="M256.855 120.069c-.488-.09-.807-.448-.826-.88v-.018h.488a.456.456 0 0 1 .414.449v-.682l-.02-.628v-.036h.02c.488 0 .881.377.9.88v.017a.876.876 0 0 1-.262.628.922.922 0 0 1-.62.27h-.094zM256.029 134.319h1.801v.898h-1.801zM256.93 136.114a.9.9 0 0 1-.9-.897h1.8a.9.9 0 0 1-.9.897zM254.978 140.045c0-.449.32-.826.788-.898h.132a.89.89 0 0 1 .863.772l.019.126h-1.802zM256.892 140.942h-1.783l-.113-.772c0-.054-.019-.071-.019-.125h1.802l.113.897zM255.11 140.942h1.783l1.482 10.858h-.787a.897.897 0 0 0-.9.88l-1.578-11.738z"/><path d="M237.451 139.147h18.315a.903.903 0 0 0-.788.898H238.24c0-.43-.32-.826-.789-.898zM238.24 140.045h16.738c0 .054.019.071.019.125l.113.772h-17.002l.113-.772c0-.054.019-.071.019-.125zM256.03 119.171h-18.26l.038-.897H256.01zM252.22 9.422h-1.163v-.897a.901.901 0 0 0-.9-.898h2.064a.9.9 0 0 1 .9.898.902.902 0 0 1-.901.897zM251.057 9.422v7.933a.901.901 0 0 0-.9-.897h-.901V9.422h1.8z"/><path d="M249.255 8.525h1.801v.898h-1.801zM251.057 67.608c0 .43-.3.772-.676.862a.975.975 0 0 1-.226.036.773.773 0 0 1-.45-.126l-.132-.072c-.019-.036-.038-.054-.056-.054-.15-.18-.262-.395-.262-.646V66.03l1.35.808a.905.905 0 0 1 .414.556.859.859 0 0 1 .038.215zM249.255 8.525a.901.901 0 0 1 1.8 0h-1.8zM249.255 17.355v-.897h.9a.9.9 0 0 1 .9.897.901.901 0 0 1-.9.898h-.9v-.898z"/><path d="M249.255 18.253h.9a.9.9 0 0 0 .9-.898v50.253a.859.859 0 0 0-.037-.215.896.896 0 0 0-.414-.556l-1.35-.808V18.253zM250.155 127.966c-.845 0-1.52-.646-1.52-1.454 0-.808.676-1.471 1.52-1.471.845 0 1.539.663 1.539 1.471s-.694 1.454-1.539 1.454zm-.619-1.454c0 .323.263.556.62.556.355 0 .637-.251.637-.556 0-.323-.282-.574-.638-.574-.337 0-.619.25-.619.574zM250.155 7.627a.9.9 0 0 0-.9.898h-3.81a.98.98 0 0 0-.244-.628 1.023 1.023 0 0 0-.563-.27h5.517z"/><path d="M249.255 17.355v.898h-4.035l.02-.898zM249.255 16.458v.897h-4.016l.018-.897zM249.255 8.525v.897h-3.828l.018-.88v-.017zM248.636 126.512c0 .808.675 1.454 1.52 1.454.844 0 1.538-.646 1.538-1.454 0-.808-.695-1.471-1.539-1.471-.845 0-1.52.663-1.52 1.471zm3.959 0c0 1.292-1.088 2.351-2.44 2.351-1.333 0-2.42-1.059-2.42-2.35 0-1.31 1.087-2.37 2.42-2.37 1.352 0 2.44 1.06 2.44 2.37zM237.77 135.217h18.26a.9.9 0 0 0 .9.897h-20.06c.487 0 .9-.395.9-.897zM237.771 134.319h18.259v.898h-18.259zM249.255 67.608c0 .252.112.467.262.646l-2.664-1.561.45-.234a.904.904 0 0 0 .45-.52 1.063 1.063 0 0 0-.056-.682.867.867 0 0 0-.337-.341l1.896 1.113v1.58h-.001zM248.636 112.406c.356 0 .619-.234.619-.556 0-.323-.282-.574-.62-.574-.356 0-.637.251-.637.574 0 .304.281.556.638.556zm0-2.029c.844 0 1.52.664 1.52 1.472 0 .807-.677 1.453-1.52 1.453-.845 0-1.539-.646-1.539-1.453s.694-1.472 1.539-1.472z"/><path d="M248.636 109.48c1.332 0 2.42 1.059 2.42 2.369 0 1.291-1.088 2.35-2.42 2.35-.864 0-1.615-.43-2.046-1.077a2.29 2.29 0 0 0 .394-1.273c0-.485-.15-.916-.394-1.292a2.448 2.448 0 0 1 2.046-1.077zm1.52 2.369c0-.808-.677-1.472-1.52-1.472-.845 0-1.539.664-1.539 1.472 0 .807.695 1.453 1.539 1.453.844.001 1.52-.646 1.52-1.453z"/><path d="M246.196 111.849c0-.485.15-.916.394-1.292a2.279 2.279 0 0 1 0 2.566 2.287 2.287 0 0 1-.394-1.274zM245.933 75.039c-.094-.467-.15-1.06-.169-1.705-.019-.216-.019-.43-.019-.646 0-.216 0-.43.02-.646.018-.467.055-.898.093-1.274.038-.162.056-.305.075-.448a.436.436 0 0 1 .431-.36c.225 0 .414.144.45.36.076.466.15 1.059.17 1.705.018.216.018.43.018.664 0 .215 0 .43-.019.646-.019.448-.056.88-.093 1.257-.02.161-.056.305-.075.448-.037.216-.226.358-.45.358a.438.438 0 0 1-.432-.36zM246.027 65.885a.869.869 0 0 1 .094-.682.897.897 0 0 1 .3-.287c.282-.162.638-.198.92-.018l.019.018a.86.86 0 0 1 .337.341c.094.216.113.448.056.682a.901.901 0 0 1-.45.52l-.45.234-.413-.252a.896.896 0 0 1-.413-.556z"/><path d="M244.02 67.626l.037-1.507 2.364-1.203a.897.897 0 0 0-.3.287.874.874 0 0 0-.094.682c.056.234.207.43.413.556l.413.252-3.322 1.705c.282-.126.47-.43.488-.772zM245.764 72.04c-.019.217-.019.431-.019.647 0 .215 0 .43.02.646.055 2.153.45 2.656.6 2.656.094 0 .3-.215.45-.951a2.5 2.5 0 0 0 .076-.448c.056-.342.093-.754.093-1.257.02-.216.02-.43.02-.646 0-.234 0-.448-.02-.664-.019-.754-.075-1.31-.168-1.705-.15-.736-.357-.952-.45-.952-.113 0-.376.306-.507 1.4a7.723 7.723 0 0 0-.095 1.275zm-.92.648c0-2.871.49-4.218 1.521-4.218 1.052 0 1.539 1.346 1.539 4.218 0 2.871-.488 4.2-1.539 4.2-1.032-.001-1.52-1.329-1.52-4.2zM244.544 8.525h.9v.018l-.017.88h-.902z"/><path d="M245.427 9.422l-.17 7.036h-.9l.168-7.036h.02zM245.257 16.458l-.018.897h-.901l.019-.897zM245.24 17.355l-.02.898h-.9l.018-.898z"/><path d="M245.22 18.253l-1.163 47.866-.901.466 1.164-48.332h.018zM243.644 8.615v-.126a.83.83 0 0 1 .075-.323c.056-.107.113-.215.206-.287a.742.742 0 0 1 .282-.18.666.666 0 0 1 .337-.072h.094c.226.036.414.126.563.27.15.18.244.395.244.628h-.9l-.02.897a.926.926 0 0 1-.881-.807z"/><path d="M244.525 9.422l-.168 7.036h-.02a.9.9 0 0 0-.9.897l.207-8.74c.056.448.431.79.881.807zM244.338 17.355l-.018.898h-.02z"/><path d="M244.3 18.253a.905.905 0 0 1-.863-.898c0-.502.414-.897.9-.897h.02l-.02.897-.036.898zM244.32 18.253l-1.164 48.332h-.018l1.163-48.332zM244.544 111.275c-.337 0-.619.251-.619.574 0 .323.263.556.62.556.356 0 .637-.252.637-.556 0-.323-.281-.574-.638-.574zm0 2.028c-.844 0-1.519-.646-1.519-1.453 0-.808.676-1.472 1.52-1.472s1.538.664 1.538 1.472c0 .806-.694 1.453-1.539 1.453zM243.119 67.608l.019-1.023h.018l-.037 1.365z"/><path d="M244.544 110.377c-.844 0-1.519.664-1.519 1.472 0 .807.676 1.453 1.52 1.453s1.538-.646 1.538-1.453-.694-1.472-1.539-1.472zm-2.42 1.472c0-1.31 1.088-2.37 2.42-2.37.864 0 1.615.43 2.046 1.078a2.348 2.348 0 0 0-.394 1.292c0 .467.15.915.394 1.273a2.448 2.448 0 0 1-2.046 1.078c-1.331 0-2.42-1.059-2.42-2.351zM242.874 68.47a.746.746 0 0 1-.394-.234s-.02 0-.02-.018a.25.25 0 0 1-.055-.072.76.76 0 0 1-.132-.197v-.036c-.019-.054-.038-.108-.038-.18-.019-.054-.019-.108-.019-.144 0-.09.02-.161.038-.251a.898.898 0 0 1 .45-.52l.432-.234-.02 1.023v.342l.039-1.364.9-.466-.038 1.507c-.019.342-.206.646-.488.772a.832.832 0 0 1-.413.108h-.038c-.038 0-.056 0-.094-.018h-.019c-.034 0-.053 0-.09-.018z"/><path d="M242.705 66.819a.904.904 0 0 0-.45.52c-.019.09-.038.161-.038.251l1.22-50.235c0 .484.395.88.864.898l-1.163 48.332-.433.234zM242.311 127.966c-.844 0-1.538-.646-1.538-1.454 0-.808.695-1.471 1.538-1.471.845 0 1.52.663 1.52 1.471s-.675 1.454-1.52 1.454zm0-2.028c-.356 0-.638.252-.638.574 0 .306.282.556.638.556.357 0 .62-.233.62-.556 0-.323-.281-.574-.62-.574z"/><path d="M241.843 4.056h-.431l-.02.414a.444.444 0 0 1 .45-.414zm13.548.43v-.43h-.45c.244 0 .45.198.45.43zm-.882.468h-12.235l-4.203 106.752-.262 6.569h-.939a.907.907 0 0 0-.9.861L240.51 4.02a.895.895 0 0 1 .9-.861h13.98a.91.91 0 0 1 .9.88l1.54 115.114a.898.898 0 0 0-.901-.88h-.02l-.037-3.266.038 3.267h-.9l-1.502-113.32zM239.872 126.512c0-1.31 1.088-2.369 2.44-2.369 1.333 0 2.421 1.06 2.421 2.37 0 1.291-1.088 2.35-2.42 2.35-1.353 0-2.44-1.059-2.44-2.35zm.9 0c0 .808.696 1.454 1.54 1.454.844 0 1.519-.646 1.519-1.454 0-.808-.676-1.471-1.52-1.471-.843 0-1.538.663-1.538 1.471zM236.306 140.942l.132-.897h1.8c0 .054-.018.071-.018.125l-.113.772h-1.8zM237.77 119.171v.036a.894.894 0 0 1-.9.862v-.448a.45.45 0 0 1 .45-.449h.45zM236.869 134.319h.9v.898h-.9z"/><path d="M236.87 118.274h.938l-.038.897h-.9v.897c-.507-.018-.901-.412-.901-.898v-.036a.908.908 0 0 1 .9-.86zM238.24 140.045h-1.801l.019-.126a.894.894 0 0 1 .881-.772h.113a.918.918 0 0 1 .788.898zM234.806 151.8l1.501-10.858h1.802l-1.614 11.738a.898.898 0 0 0-.9-.88h-.79zM235.969 134.319h.9v.898h-.9zM236.87 136.114a.9.9 0 0 1-.901-.897h1.8a.9.9 0 0 1-.9.897z"/><path d="M236.494 152.68v.018l-.038.251a.912.912 0 0 1-.864.646h-1.032l.244-1.795h.787c.49 0 .885.377.903.88zM234.13 140.045v-.898h3.208a.894.894 0 0 0-.881.772l-.02.126h-2.307zM234.13 140.045h2.308l-.132.897h-3.078a.9.9 0 0 0 .902-.897zM235.969 134.32v.897h-1.84a.9.9 0 0 0-.9-.898h2.74zM234.13 136.114v-.897h1.839c0 .502.413.897.9.897h-2.74z"/><path d="M236.457 152.95l-.6 4.36a.907.907 0 0 0-.9-.86h-.788l.394-2.854h1.032a.915.915 0 0 0 .862-.647zM232.498 168.563l1.426-10.32h1.032c.395 0 .751-.27.845-.628l-1.501 10.948h-1.802z"/><path d="M234.055 157.346l.113-.898h.787c.47 0 .882.377.9.862v.036l-.018.108-.038.161c-.094.36-.45.628-.845.628h-1.032l.133-.897zM234.299 168.563l-.131.898h-1.802l.132-.898zM233.23 140.942a.9.9 0 0 1-.901-.897.9.9 0 0 1 .9-.898h.9v.898a.9.9 0 0 1-.9.897zM233.23 136.114a.913.913 0 0 1-.901-.808v-.09a.901.901 0 0 1 1.8 0v.898h-.9z"/><path d="M233.23 139.147a.9.9 0 0 0-.901.898v-4.739c.057.467.45.808.9.808h.9v3.033h-.9zM232.366 169.46h1.8l-.055.43a.741.741 0 0 1-.226.468h-1.333a.896.896 0 0 1-.206-.718l.02-.18zM236.87 129.491h-.451a.45.45 0 0 1 .45.448v-.448zm0-6.048a.45.45 0 0 1-.451.449h.45v-.449zm-4.242 6.048a.45.45 0 0 1-.45-.448v.448h.45zm-.45-5.15a.45.45 0 0 1 .45-.448h-.45v.448zm23.851-4.272h-18.258v3.823a.9.9 0 0 1-.9.897h-3.791v3.805h3.79a.9.9 0 0 1 .9.897v4.828h-1.8v-3.93h-3.791a.9.9 0 0 1-.9-.898v-5.6c0-.502.413-.897.9-.897h3.79v-3.823c0 .485.395.88.901.898a.894.894 0 0 0 .9-.862v-.036h18.26v.018c.018.432.337.79.825.88h.094a.92.92 0 0 0 .619-.27.878.878 0 0 0 .262-.628v15.148h-1.8v-14.25zM229.664 157.346a.455.455 0 0 1-.45-.396v.396h.45zm-.451-5.546h5.592l-.244 1.795h-4.448v2.853h4.054l-.113.898-.132.897h-4.71a.9.9 0 0 1-.9-.897v-4.648a.903.903 0 0 1 .901-.898z"/><path d="M105.944 170.358v-.897h126.422l-.02.18c-.037.269.039.52.207.717H105.944zM105.944 169.46v-.897h126.554l-.132.898zM105.944 177.053l13.493.108a.9.9 0 0 0-.9.897v.88l-13.493-.108v-.054c.488 0 .9-.413.9-.897v-.826z"/><path d="M120.337 178.955l-1.8-.018v-.88c0-.502.413-.897.9-.897h1.013a.9.9 0 0 1 .9.897.9.9 0 0 1-.9.898h-.113zM105.944 170.358v6.695l-.9-.018v-6.677zM105.044 168.563h.9v.898h-.9z"/><path d="M105.044 169.461h.9v.898h-.9zM105.044 169.46v.898a.9.9 0 0 1-.9-.897c0-.503.413-.898.9-.898v.898zM105.044 177.035l.9.018v.826a.913.913 0 0 1-.9.897.913.913 0 0 1-.9-.897v-.844h.9z"/><path d="M104.142 169.46c0 .503.414.898.9.898v6.677h-.9v-7.574z"/><path d="M99.095 178.793a51.401 51.401 0 0 0-.601-1.813l5.648.054v.844c0 .484.414.897.9.897v.054l-5.947-.036zM99.677 127.804v-.898h.9a.9.9 0 0 1 .9.898.901.901 0 0 1-.9.897h-.9v-.897z"/><path d="M105.044 163.305v-.198l-.132-.126c.075.09.132.198.132.324zm-5.367-4.308v-30.296h.9a.9.9 0 0 0 .9-.897v30.798l4.167 3.84c.188.18.3.413.3.664v5.456h-.9a.9.9 0 0 0-.9.898v-5.96l-4.167-3.84a.914.914 0 0 1-.3-.663zM91.946 127.804h7.731v.898h-7.731z"/><path d="M99.677 126.907v.898h-7.731a.901.901 0 0 0-.9-.898h8.63zM97.988 178.309c-.15-.448-.282-.88-.432-1.274a.782.782 0 0 1 .282-.054h.657a51.4 51.4 0 0 1 .6 1.813l-.938-.018h-.019a6.404 6.404 0 0 0-.15-.467zM98.55 118.633l.751.018z"/><path d="M97.2 178.506a.643.643 0 0 1-.132-.18c-.019-.017-.019-.035-.019-.053-.038-.09-.056-.162-.075-.234-.038-.054-.038-.108-.038-.161 0-.395.263-.736.62-.844.15.43.3.862.43 1.274.058.162.114.322.15.466h-.3a.853.853 0 0 1-.636-.268zM97.67 118.76h-.864l.075-.342a.898.898 0 0 1 .413-.556h.375c.45 0 .826.322.882.771h-.414l-.375-.018-.038.162-.055-.018z"/><path d="M97.537 119.657h-.919l.188-.898h.863l.056.018V118.831c-.019.036-.019.09-.038.126v.018l-.019.072v.018l-.132.574v.018h.001z"/><path d="M97.67 119.657h-.133v-.018l.132-.574v-.018l.02-.072v-.018c.018-.036.018-.09.037-.126v-.018a.43.43 0 0 1 .413-.18h.414c.019.036.019.09.019.126a.904.904 0 0 1-.903.898zM89.168 117.862h8.126a.902.902 0 0 0-.413.556l-.075.341h-6.737a.9.9 0 0 0-.9-.897zM96.806 118.76l-.188.897h-6.55v-.898zM96.599 95.66a.9.9 0 0 0 .9-.897.878.878 0 0 0-.787-.88c.038-.017.075-.017.113-.017a.9.9 0 0 1 .9.897.901.901 0 0 1-.9.898h-.226z"/><path d="M96.599 123.03h-.732l.751-3.374h.92l-.751 3.356v.036c-.075-.018-.131-.018-.188-.018zM96.599 95.66a.946.946 0 0 1-.676-.305v-.592c0-.466.357-.844.788-.88a.878.878 0 0 1 .788.88.899.899 0 0 1-.9.898z"/><path d="M95.924 95.66h.902a.9.9 0 0 0 .9-.897v4.612a.913.913 0 0 0-.9-.807h-.9V95.66h-.002z"/><path d="M96.825 99.465h-.45a.45.45 0 0 1 .45.448v-.448zm0 .898a.9.9 0 0 1-.9-.898v-.897h.9c.45 0 .844.341.9.807v.09a.901.901 0 0 1-.9.898zM95.699 94.763c0-.502.413-.897.9-.897.038 0 .075 0 .113.018a.878.878 0 0 0-.788.88H95.7zM96.599 124.825h-7.43a.9.9 0 0 0 .9-.898h5.63c0 .216.074.413.206.574.169.198.395.288.694.324z"/><path d="M94.535 94.763v-.897H96.6a.9.9 0 0 0-.9.897h-1.165zM96.712 123.48l-.113.447.563-.018a.461.461 0 0 1-.337-.161.384.384 0 0 1-.113-.269zm-.113 1.345c-.3-.036-.525-.126-.694-.323a.9.9 0 0 1-.206-.574c0-.071 0-.125.018-.197l.15-.7h.732c.056 0 .113 0 .188.018.394.09.713.448.713.88 0 .484-.395.879-.864.897l-.037-.001z"/><path d="M90.069 123.927v-.897h5.798l-.15.7c-.018.072-.018.126-.018.197h-5.63zM93.634 95.66a.9.9 0 0 0 .9-.897h1.164c0 .234.093.43.224.592v.306h-2.288zM94.685 146.632c0 .125.132.251.3.251.17 0 .32-.108.32-.251v-.826c0-.144-.15-.27-.32-.27-.168 0-.3.126-.3.27v.826zm-.9-.826c0-.646.544-1.166 1.2-1.166.677 0 1.22.52 1.22 1.166v.826c0 .628-.543 1.149-1.22 1.149-.656 0-1.2-.52-1.2-1.15v-.825zM94.986 134.84c-.169 0-.3.125-.3.269v.664c0 .305.618.287.618 0v-.664c0-.144-.15-.27-.318-.27zm-1.201.933v-.664c0-.646.544-1.166 1.2-1.166.677 0 1.22.52 1.22 1.166v.664c0 .646-.543 1.167-1.22 1.167-.656 0-1.2-.521-1.2-1.167zM94.986 156.448c-.169 0-.3.126-.3.27v.592c0 .305.618.287.618 0v-.592c0-.144-.15-.27-.318-.27zm-1.201.27c0-.646.544-1.167 1.2-1.167.677 0 1.22.52 1.22 1.167v.592c0 .646-.543 1.167-1.22 1.167-.656 0-1.2-.52-1.2-1.167v-.592z"/><path d="M93.785 157.31c0 .646.544 1.167 1.2 1.167.677 0 1.22-.52 1.22-1.167v-.592c0-.646-.543-1.167-1.22-1.167-.656 0-1.2.52-1.2 1.167v.592zm1.2 2.064c-1.162 0-2.1-.933-2.1-2.063v-.592c0-1.131.938-2.064 2.1-2.064 1.164 0 2.121.934 2.121 2.064v.592c0 1.13-.957 2.063-2.12 2.063zM93.785 146.632c0 .628.544 1.149 1.2 1.149.677 0 1.22-.52 1.22-1.15v-.825c0-.646-.543-1.166-1.22-1.166-.656 0-1.2.52-1.2 1.166v.826zm1.2 2.045c-1.162 0-2.1-.915-2.1-2.046v-.826c0-1.131.938-2.064 2.1-2.064 1.164 0 2.121.934 2.121 2.064v.826c0 1.13-.957 2.046-2.12 2.046zM93.785 135.773c0 .646.544 1.167 1.2 1.167.677 0 1.22-.52 1.22-1.167v-.664c0-.646-.543-1.166-1.22-1.166-.656 0-1.2.52-1.2 1.166v.664zm-.902-.664c0-1.131.939-2.064 2.102-2.064 1.163 0 2.12.934 2.12 2.064v.664c0 1.13-.957 2.063-2.12 2.063-1.163 0-2.102-.933-2.102-2.063v-.664zM92.733 91.245a.901.901 0 0 1 1.801 0 .901.901 0 0 1-.9.897h-.9v-.897zM93.634 95.66a.9.9 0 0 1-.9-.897v-.072a.902.902 0 0 1 .9-.825h.9v.897a.9.9 0 0 1-.9.898z"/><path d="M93.634 93.866c-.47 0-.864.359-.9.825v-2.549h.9a.9.9 0 0 0 .9-.897v2.62h-.9zM90.858 91.245a.901.901 0 0 0-.9-.898h3.677a.9.9 0 0 0-.9.898h-1.877z"/><path d="M90.858 91.245h1.877v.898h-1.877zM91.946 170.178v-.897c.094-.018.168-.018.262-.018 1.427 0 2.421.52 2.89.772.958.502 2.234 3.554 3.397 6.945h-.657a.782.782 0 0 0-.282.054.134.134 0 0 0-.038-.09 86.734 86.734 0 0 0-1.069-2.89c0-.018-.019-.018-.019-.036a21.467 21.467 0 0 0-.731-1.651c-.094-.198-.188-.395-.263-.556a.097.097 0 0 1-.056-.09c-.15-.27-.281-.484-.413-.628 0-.018-.038-.036-.038-.036a.992.992 0 0 0-.263-.234 5.593 5.593 0 0 0-.375-.197c-.188-.072-.394-.162-.638-.234a2.38 2.38 0 0 0-.544-.144 4.466 4.466 0 0 0-.9-.09c-.095.002-.17.002-.263.02zM91.044 170.304v-.915c.3-.072.601-.108.9-.108v.897c-.299 0-.6.036-.9.126z"/><path d="M91.946 169.28c-.3 0-.6.037-.9.109V128.7h.9v40.58zM91.946 127.804H90.145a.901.901 0 0 1 1.8 0z"/><path d="M91.044 127.804h.9v.898h-.9zM94.254 171.614c-.394-.198-1.07-.556-2.046-.556a3.37 3.37 0 0 0-.731.072.905.905 0 0 0 .469-.79v-.162c.094-.018.168-.018.262-.018.338 0 .638.036.9.09.189.036.376.072.545.144.244.072.45.162.638.234.15.072.281.143.375.197a.992.992 0 0 1 .263.234l.038.036c.113.144.262.376.413.628 0 .036.019.072.056.09.075.161.169.359.263.556.243.484.488 1.041.731 1.651 0 0 0 .018.02.036.356.915.731 1.92 1.068 2.89.02.036.02.054.038.09a.883.883 0 0 0-.619.844c0 .053 0 .107.038.161-1.239-3.573-2.346-6.14-2.721-6.427z"/><path d="M90.144 127.804h.9v.898h-.9zM90.97 171.238a.925.925 0 0 1-.807-.682c.3-.126.6-.216.881-.252.3-.09.601-.126.9-.126v.162a.905.905 0 0 1-.468.79 2.576 2.576 0 0 0-.507.108z"/><path d="M91.044 170.304a3.45 3.45 0 0 0-.881.252c-.02-.072-.02-.144-.02-.216v-.718c.301-.125.6-.197.901-.233v.915zM89.956 92.142a.913.913 0 0 1-.9-.807v-.09a.901.901 0 0 1 1.8 0v.897h-.9z"/><path d="M90.144 169.622v-40.92h.9v40.687c-.3.036-.6.108-.9.233zM89.956 95.66a.9.9 0 0 1-.9-.897v-.897h.9c.45 0 .845.341.9.807v.09a.9.9 0 0 1-.9.898zM88.268 123.03h1.801v.898h-1.801z"/><path d="M88.268 119.657h1.801v3.374h-1.801zM88.268 118.759h1.801v.898h-1.801zM88.268 123.927h1.8a.901.901 0 0 1-1.8 0z"/><path d="M88.268 118.76a.901.901 0 0 1 1.8 0h-1.8zM89.056 91.335c.055.466.45.807.9.807h.9v2.531a.913.913 0 0 0-.9-.807h-.9v-2.531zM85.058 93.866h3.997v.898h-3.997z"/><path d="M84.364 95.643a.9.9 0 0 0 .694-.88h3.998c0 .502.413.898.9.898h-5.404c-.057 0-.113 0-.188-.018zM84.29 118.76a.901.901 0 0 0-.901-.898h5.78a.9.9 0 0 0-.901.897H84.29zM84.29 123.03h3.978v.898H84.29z"/><path d="M84.29 118.759h3.978v.898H84.29zM84.345 95.643a.9.9 0 0 1 .207-1.777h.506v.897c0 .43-.3.79-.694.88h-.019zM82.488 119.657h1.801v3.374h-1.801zM82.488 118.759h1.801v.898h-1.801z"/><path d="M84.29 118.76h-1.801a.901.901 0 0 1 1.8 0zM83.257 82.576a.901.901 0 0 1 1.801 0 .9.9 0 0 1-.9.898h-.9v-.898zM89.168 124.825H83.39a.9.9 0 0 0 .9-.898h3.979a.9.9 0 0 0 .9.898z"/><path d="M83.389 124.825a.9.9 0 0 1-.9-.898h1.8a.9.9 0 0 1-.9.898zM84.158 95.66a.9.9 0 0 1-.9-.897v-11.29h.9a.9.9 0 0 0 .9-.897v11.29h-.506a.9.9 0 0 0-.207 1.777c-.074.018-.131.018-.187.018zM81.906 81.679h2.253a.9.9 0 0 0-.9.897h-.451a.903.903 0 0 0-.902-.897z"/><path d="M82.807 82.576h.451v.898h-.451zM82.488 123.03h1.801v.898h-1.801zM81.005 82.666v-.09a.901.901 0 0 1 1.801 0v.898h-.9a.913.913 0 0 1-.901-.808zM77.947 118.76a.901.901 0 0 0-.9-.898h6.342a.9.9 0 0 0-.9.897h-4.542zM77.947 123.03h4.541v.898h-4.541z"/><path d="M77.947 118.759h4.541v.898h-4.541zM81.906 95.66a.9.9 0 0 1-.9-.897v-.897h.9c.45 0 .845.341.901.807v.09a.901.901 0 0 1-.9.898z"/><path d="M81.906 83.474h.901v11.2a.914.914 0 0 0-.9-.808h-.902v-11.2c.057.467.45.808.901.808zM78.66 175.456c1.82-.234 3.546-.574 4.804-1.132 1.051-.466 2.12-1.49 3.059-2.387.75-.717 1.407-1.345 2.045-1.669a7.293 7.293 0 0 1 1.577-.646v.718c0 .072 0 .144.019.216a6.736 6.736 0 0 0-1.182.502 2.41 2.41 0 0 0-.395.251c-.057.036-.112.09-.187.144-.094.072-.188.144-.282.234-.075.072-.15.144-.243.215-.075.054-.15.126-.207.198l-.02.018c-.168.144-.337.306-.505.466-.995.952-2.12 2.028-3.322 2.567-.6.27-1.276.484-1.99.646-.356.09-.731.18-1.107.252-.656.125-1.35.215-2.064.305v-.898zM81.005 93.866v.897h-5.873a.901.901 0 0 0-.9-.897h6.773z"/><path d="M81.906 95.66h-6.774v-.897h5.873c0 .502.413.898.901.898zM84.177 175.976c-1.69.735-3.885 1.112-6.23 1.363a.902.902 0 0 0 .713-.88v-.107c.713-.09 1.408-.18 2.064-.305.376-.072.751-.162 1.108-.252a10.734 10.734 0 0 0 1.99-.646c1.2-.538 2.326-1.615 3.32-2.567.17-.161.338-.323.507-.466 0-.018 0-.018.019-.018a1.05 1.05 0 0 1 .207-.198c.074-.071.168-.161.243-.215.094-.09.188-.162.282-.234.057-.054.131-.108.187-.144a2.41 2.41 0 0 1 .395-.251 6.588 6.588 0 0 1 1.182-.502.925.925 0 0 0 .806.682 6.958 6.958 0 0 0-1.576.61c-.394.215-1.032.807-1.632 1.4-1.053.989-2.235 2.12-3.585 2.73zM77.947 123.927h4.542c0 .503.413.898.9.898h-6.342a.9.9 0 0 0 .9-.898zM80.386 99.465h.45a.901.901 0 0 1-.9.898v-.449a.45.45 0 0 1 .45-.449zM80.03 98.568h15.894v.897H80.836a.91.91 0 0 0-.806-.897z"/><path d="M79.035 99.465a.9.9 0 0 1 .9-.897h.095a.91.91 0 0 1 .806.897h-1.8zM79.035 100.363v-.898h.9v.898z"/><path d="M75.132 99.465v-.897h4.804a.9.9 0 0 0-.9.897h-3.904zM78.321 176.406l-.563.054v-.898l.9-.107v.897l-.337.054zM76.145 123.03h1.801v.898h-1.801z"/><path d="M76.145 119.657h1.801v3.374h-1.801zM76.145 118.759h1.801v.898h-1.801zM77.947 123.927a.901.901 0 0 1-1.8 0h1.8z"/><path d="M77.947 118.76h-1.8a.9.9 0 0 1 1.8 0zM78.66 176.46c0 .448-.32.79-.713.88-.075.017-.132.017-.188.017a.913.913 0 0 1-.9-.807c.3-.036.6-.054.9-.09l.563-.054c.113-.018.225-.036.338-.036v.09z"/><path d="M77.76 175.562v.898c-.301.036-.6.054-.901.09v-.898c.3-.036.6-.054.9-.09zM74.231 100.363a.9.9 0 0 0 .9-.898h3.904v.898h-4.804zM74.231 95.66a.913.913 0 0 1-.9-.807v-.09a.901.901 0 0 1 1.8 0v.898h-.9z"/><path d="M75.132 98.568h-.9a.897.897 0 0 0-.901.88v-4.595c.057.466.45.808.9.808h.9v2.907z"/><path d="M74.231 100.363a.9.9 0 0 1-.9-.898v-.018a.898.898 0 0 1 .9-.88h.9v.898a.901.901 0 0 1-.9.898zM73.875 135.97v-1.059c0-.018-.038-.072-.113-.072-.075 0-.113.054-.113.072v1.06c0 .09.226.09.226 0zm-1.126-1.058c0-.538.45-.97 1.013-.97s1.013.431 1.013.97v1.06c0 .537-.45.969-1.013.969s-1.013-.432-1.013-.97v-1.059zM71.923 123.03h4.222v.898h-4.222zM71.923 118.759h4.222v.898h-4.222z"/><path d="M73.762 133.943c-.563 0-1.013.43-1.013.97v1.058c0 .538.45.97 1.013.97s1.013-.432 1.013-.97v-1.059c0-.539-.45-.97-1.013-.97zm0 3.894c-1.051 0-1.914-.843-1.914-1.867v-1.059c0-1.023.864-1.867 1.914-1.867 1.05 0 1.914.844 1.914 1.867v1.06c0 1.023-.863 1.866-1.914 1.866zM70.14 177.16v-.898c.75-.09 1.558-.18 2.402-.251.601-.054 1.22-.108 1.858-.144.807-.072 1.632-.144 2.458-.216v.898c-.057 0-.113 0-.169.018-.356.036-.695.054-1.051.09-.394.036-.77.053-1.163.09-.638.053-1.257.107-1.858.161-.694.072-1.35.126-1.97.216-.15 0-.282.018-.414.036h-.093zM70.91 127.804h19.235v.898H70.91zM77.046 124.825h-6.024a.9.9 0 0 0 .9-.898h4.222a.902.902 0 0 0 .902.898zM71.923 118.76a.901.901 0 0 0-.9-.898h6.024a.9.9 0 0 0-.9.897h-4.224z"/><path d="M70.121 118.76a.901.901 0 0 1 1.801 0h-1.8zM69.108 131.106v-.897h.9c.45 0 .845.341.9.808v.09a.9.9 0 0 1-1.8 0zM70.91 127.804a.9.9 0 0 0-.9-.898h21.035a.9.9 0 0 0-.9.898H70.91zM71.023 124.825a.9.9 0 0 1-.9-.898h1.8a.9.9 0 0 1-.9.898z"/><path d="M70.121 123.03h1.801v.898h-1.801z"/><path d="M70.121 119.657h1.801v3.374h-1.801zM70.121 118.759h1.801v.898h-1.801zM72.692 177.807a84.57 84.57 0 0 0-3.266.36.902.902 0 0 0 .713-.88v-.108c.02-.018.056-.018.094-.018.132-.018.263-.036.413-.036.62-.09 1.276-.144 1.971-.216.601-.054 1.22-.108 1.858-.162.394-.036.77-.053 1.163-.09.356-.035.695-.053 1.051-.09.056-.017.113-.017.169-.017.056.466.45.807.9.807-1.05.126-2.139.198-3.208.288-.638.054-1.257.108-1.858.162zM70.14 177.16v.018c-.32.036-.619.072-.9.108v-.916c.3-.036.582-.072.9-.108v.898z"/><path d="M66.144 118.76a.901.901 0 0 0-.9-.898h5.779a.9.9 0 0 0-.9.897h-3.98zM66.144 123.03h3.978v.898h-3.978z"/><path d="M66.144 118.759h3.978v.898h-3.978zM65.242 124.825a.9.9 0 0 0 .9-.898h3.98c0 .503.412.898.9.898h-5.78zM69.108 127.894v-.09a.901.901 0 0 1 1.8 0v.897h-.9a.913.913 0 0 1-.9-.807z"/><path d="M69.108 130.209v-2.315c.057.467.45.807.9.807h.9v2.316a.913.913 0 0 0-.9-.808h-.9zM69.24 178.183a.878.878 0 0 1-.882-.772l.019-.018c.282-.036.563-.072.864-.107.281-.036.582-.072.9-.108v.108c0 .448-.32.79-.713.88-.076.017-.132.017-.188.017z"/><path d="M68.34 177.286v-.79c.28-.036.581-.072.9-.126v.916c-.3.035-.582.071-.864.107h-.019c-.018-.036-.018-.072-.018-.107z"/><path d="M77.76 165.656v-.448h-.45a.45.45 0 0 1 .45.448zm-9.42 10.84v-11.29c0-.502.412-.897.9-.897h8.52a.9.9 0 0 1 .9.898v10.248l-.9.107c-.301.036-.6.054-.901.09v-9.548H70.14v10.158c-.32.036-.6.072-.9.108-.32.054-.62.09-.902.126zM69.108 130.209v.897H51.919a.907.907 0 0 0-.563-.825l-.168-.072h17.92zM70.01 132.004H51.92v-.898h17.189a.9.9 0 0 0 .9.898zM67.4 135.845c0 .233.47.215.47 0v-.808c0-.108-.094-.198-.244-.198-.131 0-.224.09-.224.198v.808H67.4zm.225 1.095c-.619 0-1.126-.484-1.126-1.095v-.808c0-.61.506-1.095 1.126-1.095.638 0 1.145.484 1.145 1.095v.808c0 .61-.507 1.095-1.145 1.095zM66.35 177.68a.907.907 0 0 0-.883-.699h-.02c.02-.036.057-.036.095-.054.113-.036 1.182-.216 2.796-.43v.79c0 .035 0 .071.02.107-.02 0-.039 0-.058.018-.224.018-.431.054-.619.072-.506.09-.938.144-1.257.198l-.075-.001z"/><path d="M69.277 183.029c-1.539-1.238-3.002-2.835-3.584-3.93-.038-.09-.075-.162-.094-.234-.02-.036-.038-.072-.038-.108a.891.891 0 0 0 .806-.88c0-.071 0-.125-.019-.18.02-.017.037-.017.075-.017.32-.054.751-.108 1.257-.198.188-.018.395-.054.62-.072h.056a.878.878 0 0 0 .882.772c.056 0 .112 0 .187-.018a60.026 60.026 0 0 0-3.003.43c.506 1.292 3.979 4.72 5.986 5.206 2.346.592 21.787.843 25.597.88.094-.61.131-1.904.038-3.303a89.15 89.15 0 0 0-.977-3.051.643.643 0 0 0 .132.18c.169.18.394.269.638.269h.3c.038.126.075.252.132.376.395 1.203.638 2.047.657 2.065 0 .09.02.18.02.287.055.898.074 2.046 0 2.872-.02.036-.02.054 0 .072-.02.18-.039.323-.076.466a1.597 1.597 0 0 1-.094.377c-.019.054-.038.09-.056.126a.463.463 0 0 1-.337.162h-.019c-.132 0-8.369-.072-15.594-.27-.375-.018-.732-.018-1.088-.036-4.523-.144-8.444-.322-9.476-.592-.732-.18-1.67-.718-2.627-1.417-.095-.09-.207-.162-.301-.234zM67.625 133.943c-.619 0-1.126.484-1.126 1.095v.808c0 .61.506 1.095 1.126 1.095.638 0 1.145-.484 1.145-1.095v-.808c0-.611-.507-1.095-1.145-1.095zm-2.026 1.094c0-1.095.92-1.993 2.026-1.993 1.126 0 2.046.898 2.046 1.993v.808c0 1.095-.92 1.991-2.046 1.991-1.107 0-2.026-.897-2.026-1.991v-.808z"/><path d="M65.487 178.13c.038-.109.075-.199.15-.252.019 0 .019 0 .019-.018.038-.018.055-.036.093-.054l.113-.036c.094-.018.225-.036.376-.072h.112c.02.054.02.108.02.18a.892.892 0 0 1-.807.88c-.02-.037-.02-.055-.038-.09a.946.946 0 0 1-.056-.306v-.054a.5.5 0 0 1 .018-.179zM64.342 123.03h1.801v.898h-1.801z"/><path d="M64.342 119.657h1.801v3.374h-1.801zM64.342 118.759h1.801v.898h-1.801z"/><path d="M66.144 118.76h-1.801a.9.9 0 0 1 1.8 0zM65.693 179.099c.582 1.095 2.045 2.691 3.584 3.93-1.539-1.202-3.04-2.781-3.584-3.93z"/><path d="M71.979 185.542c-2.308-.556-6.793-4.505-7.356-6.766H65.543a.359.359 0 0 1 .056.09c.019.072.056.144.094.234.544 1.149 2.045 2.728 3.584 3.93.093.09.206.162.3.234.957.7 1.895 1.237 2.627 1.417 1.032.27 4.953.448 9.476.592.356.018.713.018 1.088.036 7.225.198 15.462.27 15.594.27h.151c.056 0 .113-.036.15-.072.019-.018.037-.054.056-.09a1.597 1.597 0 0 0 .15-.503 3.32 3.32 0 0 0 .075-.466c-.019-.018-.019-.036 0-.072.075-.682.075-1.634 0-2.872 0-.107-.019-.197-.019-.287-.019-.018-.262-.862-.657-2.065l-.113-.376.939.018c.243.772.488 1.543.713 2.28.206 2.817.038 4.486-.507 5.043-.206.233-.488.36-.787.36-.225-.002-23.607-.181-26.534-.935zM66.144 123.927a.901.901 0 0 1-1.801 0h1.8zM64.623 177.878c.113-.395.395-.736.826-.898h.019a.91.91 0 0 1 .882.7c-.038.018-.074.018-.112.018-.15.036-.282.054-.376.072l-.113.036-.093.054-.02.018-.15.251c-.018.018-.018.036-.018.054v.18c0 .09.019.197.056.305 0 .036.019.072.019.108H64.623a1.274 1.274 0 0 1-.056-.36c-.019-.18 0-.359.056-.538z"/><path d="M65.449 176.981a1.336 1.336 0 0 0-.826.898H54.34c-.319-.306-.675-.61-1.05-.898h12.159z"/><path d="M64.623 178.775h-9.42a9.679 9.679 0 0 0-.864-.897h10.283c-.056.18-.075.359-.056.538.001.108.02.234.057.359zM60.195 118.76a.901.901 0 0 0-.9-.898h5.947a.9.9 0 0 0-.9.897h-4.147zM60.195 123.03h4.147v.898h-4.147z"/><path d="M60.195 118.759h4.147v.898h-4.147zM60.195 123.927h4.147a.9.9 0 0 0 .9.898h-5.948a.9.9 0 0 0 .9-.898zM61.415 157.328c0 .27.582.287.582 0v-.628c0-.144-.132-.252-.282-.252-.169 0-.3.108-.3.252v.628zm.3 1.149c-.657 0-1.2-.52-1.2-1.15v-.627c0-.628.543-1.15 1.2-1.15.657 0 1.182.52 1.182 1.15v.628c0 .629-.526 1.149-1.182 1.149zM61.415 146.65c0 .251.582.27.582 0v-.862c0-.144-.113-.252-.282-.252-.15 0-.3.072-.3.252v.862zm-.902-.862c0-.646.525-1.148 1.201-1.148.657 0 1.182.502 1.182 1.148v.862c0 .628-.525 1.13-1.182 1.13-.676 0-1.2-.501-1.2-1.13v-.862z"/><path d="M60.513 157.328c0 .628.544 1.149 1.201 1.149s1.182-.52 1.182-1.15v-.627c0-.628-.525-1.15-1.182-1.15-.657 0-1.2.52-1.2 1.15v.628zm-.9-.628c0-1.131.938-2.046 2.101-2.046 1.145 0 2.083.916 2.083 2.046v.628c0 1.13-.939 2.045-2.083 2.045-1.163 0-2.101-.915-2.101-2.045v-.628zM60.513 146.65c0 .628.525 1.13 1.201 1.13.657 0 1.182-.501 1.182-1.13v-.862c0-.646-.525-1.148-1.182-1.148-.676 0-1.2.502-1.2 1.148v.862zm-.9-.862c0-1.148.92-2.046 2.101-2.046 1.163 0 2.083.898 2.083 2.046v.862c0 1.112-.939 2.027-2.083 2.027-1.182 0-2.101-.897-2.101-2.027v-.862zM58.394 123.03h1.801v.898h-1.801z"/><path d="M58.394 119.657h1.801v3.374h-1.801zM58.394 118.759h1.801v.898h-1.801zM60.195 123.927a.901.901 0 0 1-1.801 0h1.8z"/><path d="M58.394 118.76a.9.9 0 0 1 1.8 0h-1.8z"/><path d="M54.734 118.76a.901.901 0 0 0-.9-.898h5.46a.9.9 0 0 0-.9.897h-3.66zM54.734 123.03h3.659v.898h-3.659z"/><path d="M54.734 118.759h3.659v.898h-3.659zM53.833 124.825a.9.9 0 0 0 .9-.898h3.66a.9.9 0 0 0 .9.898h-5.46zM138.165 186.511l-.056 3.446a.45.45 0 0 1-.45.449h.45v-.449l.056-3.446zm.037-3.159v-.43h-.45c.112 0 .225.054.319.126.075.089.13.197.13.304zm-18.765-.43h.45a.45.45 0 0 1-.45-.45v.45zm-60.819 7.484a.478.478 0 0 1-.337-.144c-.057-.072-.113-.162-.113-.252-.019.216-.038.342-.038.396h.488zm-1.37-.108c.039-.377.77-7.107-4.654-11.63a.783.783 0 0 0 .414.108h2.195c3.528 3.966 3.885 8.794 3.866 10.733h78.156l.075-5.69h-17.864a.9.9 0 0 1-.9-.897v-3.984l1.8.018v3.069h17.865c.243 0 .469.09.638.27a.888.888 0 0 1 .262.645l-.094 7.485a.91.91 0 0 1-.9.88H58.13a.88.88 0 0 1-.881-1.007z"/><path d="M52.933 123.03h1.801v.898h-1.801z"/><path d="M52.933 119.657h1.801v3.374h-1.801zM52.933 118.759h1.801v.898h-1.801zM53.833 124.825a.9.9 0 0 1-.9-.898h1.8a.9.9 0 0 1-.9.898zM53.833 117.862a.9.9 0 0 1 .9.897h-1.8a.9.9 0 0 1 .9-.897zM58.055 235.633c-3.115 0-5.63-2.423-5.63-5.402 0-2.96 2.515-5.366 5.63-5.366 3.096 0 5.61 2.405 5.61 5.366 0 2.98-2.513 5.402-5.61 5.402zm0-9.871c-2.608 0-4.729 2.01-4.729 4.47 0 2.476 2.12 4.504 4.73 4.504 2.608 0 4.728-2.028 4.728-4.505 0-2.459-2.12-4.47-4.729-4.47zM52.257 178.38c-1.67-1.291-3.885-2.404-6.83-3.068.055.018.093.018.149.018.488 0 .9-.413.9-.898v-.7c2.872.736 5.105 1.885 6.812 3.249h-.281a.9.9 0 0 0-.75 1.4z"/><path d="M52.257 178.38a.901.901 0 0 1 .75-1.4l.282.001c.376.288.732.592 1.051.898.319.287.6.592.864.897h-2.195c-.15 0-.3-.036-.414-.108a1.874 1.874 0 0 0-.3-.233c0-.018-.02-.036-.038-.054zM49.499 118.76a.901.901 0 0 0-.901-.898h5.235a.9.9 0 0 0-.9.897h-3.434zM49.499 123.03h3.434v.898h-3.434z"/><path d="M49.499 118.759h3.434v.898h-3.434zM49.499 123.927h3.434c0 .503.413.898.9.898h-5.235a.9.9 0 0 0 .9-.898zM58.055 236.53c-3.603 0-6.53-2.834-6.53-6.299 0-3.464 2.927-6.263 6.53-6.263 3.584 0 6.511 2.8 6.511 6.263.001 3.464-2.927 6.3-6.51 6.3zm-5.63-6.299c0 2.98 2.515 5.402 5.63 5.402 3.096 0 5.61-2.423 5.61-5.402 0-2.96-2.514-5.366-5.61-5.366-3.115 0-5.63 2.404-5.63 5.366zM51.075 163.269h-.056v-31.265h.9v32.162a.967.967 0 0 0-.225-.592.925.925 0 0 0-.62-.305zM51.018 131.106h.901v.898h-.901v-.592z"/><path d="M51.075 163.269c.243.018.45.126.619.305a.967.967 0 0 1 .225.592v.054c-.037.484-.413.844-.844.844h-.056v-1.795h.056zM50.755 130.999c.15.072.263.233.263.412v.592a.9.9 0 0 1-.9-.898c0-.502.413-.897.9-.897h.169l.168.072a.907.907 0 0 1 .563.825h-.9l-.263-.106zM51.018 163.269v1.795c-.038 0-.113 0-.132-.018-.206-.018-.469-.018-.77-.036v-1.795c.47.036.771.036.902.054zM47.697 123.03h1.801v.898h-1.801z"/><path d="M47.697 119.657h1.801v3.374h-1.801zM47.697 118.759h1.801v.898h-1.801z"/><path d="M47.697 118.76a.901.901 0 0 1 1.8 0h-1.8zM49.499 123.927a.901.901 0 0 1-1.801 0h1.8zM44.338 123.03h3.359v.898h-3.359zM44.338 118.759h3.359v.898h-3.359z"/><path d="M44.338 123.927h3.36c0 .503.413.898.9.898h-4.26v-.898zM45.576 173.517v-1.831a.45.45 0 0 1 .45-.448h4.992V165.064h.056c.431 0 .807-.36.844-.844v7.018a.901.901 0 0 1-.9.897h-4.541v1.597a6.497 6.497 0 0 0-.901-.215zM44.338 118.76v-.898h4.26a.9.9 0 0 0-.9.897h-3.36z"/><path d="M45.576 171.686v1.83a6.638 6.638 0 0 0-.638-.143c-.094-.018-.169-.036-.262-.054v-2.081c0-.503.413-.898.9-.898h4.541v-5.33c.301.018.564.018.77.036.02.018.094.018.132.018v5.725a.45.45 0 0 1-.45.449h-4.992v.448h-.001z"/><path d="M45.576 173.517c.32.054.619.126.9.215v.7a.913.913 0 0 1-.9.898c-.056 0-.094 0-.15-.018-.019-.018-.056-.018-.075-.018a.9.9 0 0 1-.675-.862v-1.113c.093.018.168.036.262.054.226.036.432.09.638.144zM43.438 123.927h.9v.898h-.9z"/><path d="M43.438 123.03h.9v.898h-.9z"/><path d="M43.438 119.657h.9v3.374h-.9zM43.438 118.759h.9v.898h-.9z"/><path d="M43.438 117.862h.9v.898h-.9z"/><path d="M100.146 118.005a.442.442 0 0 1 0 .432.487.487 0 0 1-.394.233l.825.018-.43-.683zm-1.446-2.279l-1.8-2.835a.386.386 0 0 1-.075-.234v.126l.075.108 1.8 2.835zM79.936 112.1a.45.45 0 0 1-.45.448h.45v-.448zm-33.89.448h-.263l-.132.234a.442.442 0 0 1 .394-.234zm-2.608 4.38c0-.072.019-.144.056-.198l-.056.09v.108zm.9.126v.808h-.9a.9.9 0 0 0-.9.897v-1.939c0-.143.037-.305.112-.43l2.346-4.272a.9.9 0 0 1 .788-.466h33.252v-11.29h.9a.9.9 0 0 0 .901-.897h15.087a.901.901 0 0 0 1.801 0v13.048l3.603 5.69c.188.288.188.628.038.933-.15.27-.45.43-.77.449l-2.12-.054-.75 3.446 2.813-.108c.32.018.507.108.657.252a.906.906 0 0 1 .282.646v4.038a.901.901 0 0 0-.9-.898h-.901V124.7l-3.04.126a.905.905 0 0 0 .863-.898c0-.43-.319-.79-.712-.88v-.035l.75-3.356h.132a.9.9 0 0 0 .9-.898c0-.036 0-.09-.018-.126l.75.018-.75-.018a.878.878 0 0 0-.882-.771h-.375a.858.858 0 0 1 .544-.144l1.088.036-2.852-4.487a.875.875 0 0 1-.15-.484v-12.42H80.836v12.187a.901.901 0 0 1-.9.898H46.309l-1.97 3.606zM43.7 128.074a.468.468 0 0 1-.262-.413v.306l.262.107zm.638-.7l6.85 2.836h-.169a.9.9 0 0 0-.9.897c0 .503.413.898.9.898v31.265c-.132-.018-.431-.018-.9-.054V131.7l-7.019-2.907a.907.907 0 0 1-.563-.825v-4.039c0 .503.413.898.9.898h.901v2.547z"/><path d="M43.438 118.76v.897a.9.9 0 0 1-.9-.898c0-.502.412-.897.9-.897v.897zM43.438 123.927v.898a.9.9 0 0 1-.9-.898c0-.502.412-.897.9-.897v.897z"/><path d="M43.438 119.657v3.374a.9.9 0 0 0-.9.897v-5.169a.9.9 0 0 0 .9.898zM27.336 214.778a.246.246 0 0 1 .038.108.845.845 0 0 0-.488-.484 1.142 1.142 0 0 0-.337-.072h.544l.243.448z"/><path d="M27.093 214.33h-1.05l-.939-1.687a.903.903 0 0 1 .431-.108h.545l1.013 1.795z"/><path d="M26.116 214.455a.754.754 0 0 1 .432-.126c.113 0 .224.036.337.072a.85.85 0 0 1 .488.484.666.666 0 0 1 .056.466c0 .036 0 .072-.019.09-.019.072-.037.162-.075.216a.76.76 0 0 1-.337.341c-.15.09-.3.126-.45.126a.947.947 0 0 1-.788-.448l-.207-.378.17-.412a.832.832 0 0 1 .393-.431z"/><path d="M26.042 214.33l.074.126a.832.832 0 0 0-.394.43l-.169.413-.77-1.364c.17.234.45.396.751.396h.508v-.001z"/><path d="M25.103 212.643l.939 1.687h-.507a.945.945 0 0 1-.75-.396l-.075-.143a.904.904 0 0 1 .393-1.148zM31.202 163.807c-.525.054-1.088.126-1.67.198.582-.072 1.126-.144 1.67-.198zm-16.269 2.8c1.239-.251 2.515-.52 3.79-.771-1.276.25-2.552.502-3.79.771zm4.034-.825c1.764-.342 3.529-.664 5.217-.97 1.332-.233 2.627-.431 3.846-.61a94.5 94.5 0 0 0-3.846.61c-1.707.288-3.453.628-5.217.97zm-5.667 1.184zm-6.268 1.417c.075-.036.169-.054.263-.072-.093.02-.188.036-.263.072zm-2.908.683a116.33 116.33 0 0 0-2.609-.162c-.15 0-.262-.017-.356-.035 2.158-.557 24.695-6.12 33.046-6.12 6.775 0 13.474.341 15.912.466v1.795c-2.72-.144-9.232-.466-15.912-.466-5.836 0-19.31 2.925-27.022 4.72a87.952 87.952 0 0 0-3.059-.198z"/><path d="M217.86 243.136c-8.856 0-17.545 0-26.008.018 8.463 0 17.152-.018 26.009-.018zm-100.262.07l17.79-.017c-6.231 0-12.16.018-17.79.018zm-95.76-25.52c-.093 0-.187 0-.28-.018.093.018.187.018.28.018zm-6.604-.629c.318.036.675.09 1.069.108-.376-.036-.732-.072-1.07-.108zm-1.634-.196a.382.382 0 0 1-.337-.252h-.525c-.094 0-.225 0-.3.036-.039.018-.076.036-.095.036.038 0 .075-.018.132-.018h.056c.038 0 .075 0 .113.018.206.054.525.108.956.18zm580.88-1.76l-.133.126v.18a.463.463 0 0 1 .132-.306zm.938-.897l.806-.772h-1.107a.44.44 0 0 1 .413.288.468.468 0 0 1-.112.484zm-1.69 29.075v-.414a.44.44 0 0 1-.43.414h.43zm-15.18 0h.413c-.226 0-.413-.18-.45-.414l.037.414zm-1.84-24.803l-.037-.538-.525.162c.038-.018.075-.018.113-.018.093 0 .187.018.262.071.113.071.169.197.188.323zm-4.56 18.145v-.467a.5.5 0 0 1-.131.324.553.553 0 0 1-.338.126l.47.017zm-127.566 6.353c7.562 0 14.843-.018 21.787-.018-6.925 0-14.206 0-21.787.018zm-161.325-.79c124.245-.09 255.152-.18 260.443-.18l22.087-6.532c.094-.018.188-.036.263-.036l5.198.251v-16.403a.9.9 0 0 1 .638-.862l4.522-1.346a.903.903 0 0 1 .769.126.9.9 0 0 1 .394.664l1.802 24.516h13.474l.6-27.173a.942.942 0 0 1 .282-.628l.263-.251h-566.9l-1.012-1.795h570.144c.376 0 .695.215.826.556a.756.756 0 0 1 .075.341.937.937 0 0 1-.282.646l-1.614 1.544-.6 27.675a.91.91 0 0 1-.9.879h-15.181a.901.901 0 0 1-.9-.826l-1.784-24.23-2.814.826v16.674a.904.904 0 0 1-.282.646.87.87 0 0 1-.619.251l-5.986-.287-22.068 6.533c-.094.018-.169.036-.262.036-4.692 0-483.018.341-483.6.341h-.226c-.92.018-2.308.036-4.015.036-6.024 0-17.114-.234-23.626-1.741-8.576-2.01-15.406-5.168-22.162-10.248-6.943-5.258-6.024-10.464-4.86-13.083.994-2.225 4.654-3.033 6.793-3.303.206-.072.412-.09.544-.09l.488-.017c.057 0 .094-.018.132-.018.243 0 .469.125.638.322 2.195.27 6.943.718 10.884 1.06l.731-1.76.207.378c.169.27.47.448.788.448.15 0 .3-.036.45-.126a.76.76 0 0 0 .337-.341l-1.107 2.692a.86.86 0 0 1-.806.556h-.132c-8.82-.772-11.69-1.06-12.798-1.346-2.214.288-4.954 1.024-5.498 2.262-1.163 2.62-1.37 6.64 4.297 10.93 6.53 4.917 13.155 7.986 21.486 9.924 6.324 1.49 17.246 1.705 23.195 1.705 1.689 0 3.096-.018 4.015-.036h.244c.225.002 108.445-.07 223.025-.16zM2.304 169.838c.132.018.282.018.45.036-.168-.018-.32-.018-.45-.036zm-1.051.826a.89.89 0 0 1-.864-.682.801.801 0 0 1 .094-.682.909.909 0 0 1 .544-.395c.02 0 .075-.017.132-.035.094.018.207.035.356.035.414.018 1.333.072 2.61.162a90.5 90.5 0 0 1 3.058.198c-1.126.27-2.12.502-2.965.682a96.043 96.043 0 0 1-1.051-.054c.3.018.638.054.994.072-1.632.413-2.628.646-2.683.664a1.021 1.021 0 0 1-.225.035zm0-.88c-.188 0-.3-.018-.338-.018l.338.61v-.162c0-.072.019-.143.056-.197.075-.108.188-.198.337-.198-.056-.018-.132-.018-.168-.018-.075.001-.15-.017-.225-.017z"/><path d="M.878 168.869h.281a.778.778 0 0 1-.132.035.914.914 0 0 0-.544.395.801.801 0 0 0-.094.682.89.89 0 0 0 .864.682.975.975 0 0 0 .225-.036c.055-.018 1.05-.252 2.683-.664a26.5 26.5 0 0 1 1.107.072c-.375-.036-.732-.054-1.051-.09.845-.18 1.839-.414 2.965-.682 9.1.61 26.61 1.975 37.494 4.056v1.113c0 .413.3.772.675.862a49.187 49.187 0 0 0-.75-.162c-12.986-2.53-35.824-4.002-42.11-4.379l23.589 41.782h-.545a.9.9 0 0 0-.43.108.905.905 0 0 0-.395 1.149L.108 170.214c-.15-.305-.15-.646.038-.933a.843.843 0 0 1 .732-.412z"/></g></svg>