<svg width="732" height="94" viewBox="0 0 732 94" version="1.1" xmlns="http://www.w3.org/2000/svg" xmlns:xlink="http://www.w3.org/1999/xlink"><title>Page 1</title><defs><path id="a" d="M.63 3h48.51V.012H.63V3z"/><path id="c" d="M.238 80h84.59V.002H.24V80z"/></defs><g stroke="none" stroke-width="1" fill="none" fill-rule="evenodd"><path d="M75.54 90.176H23.654c-3.585 0-6.585-2.552-7.278-5.934h66.442c-.693 3.382-3.693 5.934-7.278 5.934m-54.16-29.02V33.65h56.434v27.506c0 11.01-8.957 19.968-19.966 19.968H41.346c-11.01 0-19.967-8.958-19.967-19.968M84.46 81.254H68.91C75.99 77.34 80.8 69.801 80.8 61.156v-29c0-.825-.67-1.493-1.494-1.493h-59.42c-.824 0-1.493.668-1.493 1.493v7.583h-6.047C5.538 39.74 0 45.276 0 52.084 0 58.893 5.538 64.43 12.346 64.43a1.493 1.493 0 0 0 0-2.986c-5.16 0-9.36-4.2-9.36-9.36 0-5.16 4.2-9.36 9.36-9.36h6.047v18.432c0 8.645 4.808 16.184 11.887 20.098H14.732c-.825 0-1.493.67-1.493 1.494 0 5.743 4.67 10.416 10.414 10.416H75.54c5.743 0 10.415-4.673 10.415-10.416 0-.825-.67-1.494-1.493-1.494M38.074 24.05a1.494 1.494 0 0 0 2.986 0c0-2.654-1.215-3.967-2.506-5.36-1.337-1.442-2.72-2.935-2.72-5.917 0-2.985 1.385-4.478 2.723-5.92 1.287-1.39 2.503-2.703 2.503-5.36a1.494 1.494 0 0 0-2.986 0c0 1.487-.535 2.064-1.708 3.33-1.484 1.6-3.517 3.795-3.517 7.95 0 4.152 2.03 6.346 3.517 7.952 1.172 1.263 1.707 1.84 1.707 3.325m11.239 0a1.494 1.494 0 0 0 2.986 0c0-2.654-1.215-3.967-2.506-5.36-1.337-1.442-2.72-2.935-2.72-5.917 0-2.985 1.385-4.478 2.723-5.92 1.287-1.39 2.503-2.703 2.503-5.36a1.494 1.494 0 0 0-2.986 0c0 1.487-.535 2.064-1.708 3.33-1.484 1.6-3.517 3.795-3.517 7.95 0 4.152 2.03 6.346 3.518 7.952 1.172 1.263 1.707 1.84 1.707 3.325m11.238 0a1.494 1.494 0 0 0 2.985 0c0-2.654-1.215-3.967-2.506-5.36-1.338-1.442-2.72-2.935-2.72-5.917 0-2.985 1.384-4.478 2.722-5.92 1.287-1.39 2.503-2.703 2.503-5.36a1.494 1.494 0 0 0-2.986 0c0 1.487-.536 2.064-1.71 3.33-1.483 1.6-3.516 3.795-3.516 7.95 0 4.152 2.03 6.346 3.52 7.952 1.17 1.263 1.705 1.84 1.705 3.325m121.101-13.632a23.89 23.89 0 0 1 17.004 7.044c9.02 9.021 9.362 23.487 1.024 32.918l-33.944-33.943c4.397-3.89 9.993-6.02 15.916-6.02m1.616 27.8a3.798 3.798 0 0 1-5.37.002 3.8 3.8 0 0 1 0-5.37c.006-.004.007-.01.012-.016l5.373 5.374c-.005.005-.012.007-.016.01m-7.482-7.48a6.793 6.793 0 0 0 0 9.593 6.76 6.76 0 0 0 4.797 1.985 6.76 6.76 0 0 0 4.795-1.983c.005-.005.006-.013.01-.017l13.267 13.267a1.496 1.496 0 0 0 2.11 0c10.542-10.541 10.542-27.692 0-38.231-5.104-5.105-11.893-7.918-19.114-7.918-7.22 0-14.01 2.813-19.115 7.918a1.493 1.493 0 0 0 0 2.112l13.265 13.265c-.004.006-.01.006-.016.01" fill="#AAA8A5"/><path d="M239.063 41.622a3.937 3.937 0 0 1 3.933 3.933 3.937 3.937 0 0 1-3.933 3.933 3.938 3.938 0 0 1-3.934-3.933 3.938 3.938 0 0 1 3.933-3.933m1.45 48.554H174.07c.694-3.383 3.694-5.935 7.28-5.935h51.885c3.585 0 6.585 2.553 7.278 5.936m-1.45-37.7a6.927 6.927 0 0 0 6.92-6.92c0-3.817-3.104-6.922-6.92-6.922-1.227 0-2.363.348-3.363.91l-22.683-20.98c2.435-3.476 2.11-8.308-.992-11.41-3.475-3.474-9.128-3.474-12.603 0a1.494 1.494 0 0 0 2.112 2.112 5.933 5.933 0 0 1 8.38 0 5.933 5.933 0 0 1 0 8.38c-.008.008-.01.018-.017.026-.007.007-.017.01-.024.017-.062.066-.09.148-.136.222-.055.086-.122.165-.157.258-.035.09-.038.185-.055.28-.016.095-.045.186-.043.282 0 .095.034.184.053.277.02.093.028.19.067.28.037.087.105.16.16.242.052.075.085.16.152.227.007.006.017.008.025.016.006.006.008.016.016.023l23.498 21.734a6.86 6.86 0 0 0-1.31 4.02c0 1.61.573 3.07 1.496 4.247l-22.133 31.454H181.35c-5.744 0-10.416 4.672-10.416 10.415 0 .824.668 1.493 1.493 1.493h69.73c.824 0 1.493-.67 1.493-1.494 0-5.744-4.672-10.416-10.415-10.416h-18.077l20.795-29.55c.94.476 1.986.77 3.11.77m108.062 29.107c-1.02 1.023-2.826 1.023-3.848 0l-4.41-4.41 37.336-37.333c.012-.012.016-.03.027-.04l6.34 6.34-35.445 35.443zm-18.693 6.712a1.433 1.433 0 0 0-.28-.422l-2.096-2.096a1.464 1.464 0 0 0-.42-.278l4.46-12.907c.05.055.087.12.14.172l10.93 10.93c.053.053.117.09.172.14l-12.906 4.46zm-4.27 1.474l.427-1.236.807.81-1.235.426zm8.185-22.964l35.445-35.445 6.34 6.34c-.012.01-.028.015-.04.027l-37.335 37.334-4.41-4.41a2.703 2.703 0 0 1-.79-1.923c0-.73.28-1.412.79-1.923zm37.08-41.882l1.3-1.3a2.697 2.697 0 0 1 1.924-.792c.73 0 1.414.28 1.925.793l15.732 15.73a2.724 2.724 0 0 1 0 3.848l-1.3 1.3c-1.02 1.025-2.826 1.022-3.848 0l-15.734-15.733a2.723 2.723 0 0 1 0-3.847zm14.664-9.862c.512-.51 1.195-.79 1.925-.79s1.414.28 1.925.79l10.93 10.93a2.7 2.7 0 0 1 .79 1.925 2.7 2.7 0 0 1-.79 1.924l-6.928 6.927-14.778-14.777 6.927-6.927zm2.994 33.22c1.527 0 2.96-.59 4.035-1.665l1.3-1.3c1.642-1.642 2.063-4.043 1.28-6.084l7.28-7.28a5.714 5.714 0 0 0 0-8.072l-10.93-10.93a5.667 5.667 0 0 0-4.035-1.666c-1.527 0-2.96.59-4.035 1.666l-7.283 7.283a5.672 5.672 0 0 0-6.082 1.28l-1.3 1.297c-1.642 1.643-2.063 4.044-1.28 6.085l-35.8 35.798a5.65 5.65 0 0 0-1.578 3.14c-.068.104-.146.2-.188.322l-8.13 23.54a1.493 1.493 0 0 0 1.898 1.898l23.54-8.13c.122-.042.217-.12.32-.19a5.637 5.637 0 0 0 3.14-1.578l35.8-35.8a5.73 5.73 0 0 0 2.048.387z" fill="#AAA8A5"/><g transform="translate(352 90.67)"><mask id="b" fill="#fff"><use xlink:href="#a"/></mask><path d="M47.648.012H2.122a1.493 1.493 0 0 0 0 2.988h45.526a1.495 1.495 0 0 0 0-2.988" fill="#AAA8A5" mask="url(#b)"/></g><path d="M399.648 81.234h-34.61a1.494 1.494 0 0 0 0 2.988h34.61a1.495 1.495 0 0 0 0-2.988" fill="#AAA8A5"/><g transform="translate(647 13.67)"><mask id="d" fill="#fff"><use xlink:href="#c"/></mask><path d="M81.843 74.292c0 1.5-1.22 2.72-2.72 2.72H5.944c-1.5 0-2.72-1.22-2.72-2.72V29.824h78.618v44.468zM5.945 12.63h6.935v1.28a5.713 5.713 0 0 0 5.707 5.708h1.84a5.713 5.713 0 0 0 5.706-5.707v-1.28h32.8v1.28a5.713 5.713 0 0 0 5.708 5.708h1.84a5.713 5.713 0 0 0 5.707-5.707v-1.28h6.935c1.5 0 2.72 1.22 2.72 2.72v11.486H3.225V15.35c0-1.5 1.22-2.72 2.72-2.72zm9.92-6.922c0-1.5 1.222-2.72 2.722-2.72h1.84c1.5 0 2.72 1.22 2.72 2.72v8.203c0 1.502-1.22 2.72-2.72 2.72h-1.84c-1.5 0-2.72-1.218-2.72-2.72V5.71zm46.055 0c0-1.5 1.22-2.72 2.72-2.72h1.84c1.5 0 2.72 1.22 2.72 2.72v8.203c0 1.502-1.22 2.72-2.72 2.72h-1.84c-1.5 0-2.72-1.218-2.72-2.72V5.71zm17.202 3.934h-6.935V5.708A5.712 5.712 0 0 0 66.48.002h-1.84a5.712 5.712 0 0 0-5.706 5.706v3.934h-32.8V5.708A5.712 5.712 0 0 0 20.425.002h-1.84a5.712 5.712 0 0 0-5.706 5.706v3.934H5.945A5.714 5.714 0 0 0 .238 15.35v58.942A5.714 5.714 0 0 0 5.945 80h73.177a5.714 5.714 0 0 0 5.707-5.708V15.35a5.714 5.714 0 0 0-5.708-5.708z" fill="#AAA8A5" mask="url(#d)"/></g><path d="M680.6 34.732h17.866a1.493 1.493 0 0 0 0-2.988H680.6a1.495 1.495 0 0 0 0 2.988m-15.017 18.003h-4.93a1.99 1.99 0 0 0 0 3.98h4.93a1.99 1.99 0 0 0 0-3.98m17.61 0h-4.93a1.99 1.99 0 0 0 0 3.98h4.93a1.99 1.99 0 0 0 0-3.98m17.61 0h-4.93a1.99 1.99 0 0 0 0 3.98h4.93a1.99 1.99 0 0 0 0-3.98m17.61 0h-4.93a1.99 1.99 0 0 0 0 3.98h4.93a1.99 1.99 0 0 0 0-3.98m-52.83 12.241h-4.93a1.99 1.99 0 0 0 0 3.98h4.93a1.99 1.99 0 0 0 0-3.98m17.61 0h-4.93a1.99 1.99 0 0 0 0 3.98h4.93a1.99 1.99 0 0 0 0-3.98m17.61 0h-4.93a1.99 1.99 0 0 0 0 3.98h4.93a1.99 1.99 0 0 0 0-3.98m17.61 0h-4.93a1.99 1.99 0 0 0 0 3.98h4.93a1.99 1.99 0 0 0 0-3.98m-52.83 12.242h-4.93a1.99 1.99 0 0 0 0 3.98h4.93a1.99 1.99 0 0 0 0-3.98m17.61 0h-4.93a1.99 1.99 0 0 0 0 3.98h4.93a1.99 1.99 0 0 0 0-3.98m17.61 0h-4.93a1.99 1.99 0 0 0 0 3.98h4.93a1.99 1.99 0 0 0 0-3.98m17.61 0h-4.93a1.99 1.99 0 0 0 0 3.98h4.93a1.99 1.99 0 0 0 0-3.98M535.628 89.144c3.538-3.184 6.558-7.887 8.768-13.626a61.72 61.72 0 0 1 8.087 3.313 38.052 38.052 0 0 1-16.855 10.314zM497.4 78.83a61.622 61.622 0 0 1 8.09-3.31c2.21 5.737 5.23 10.44 8.767 13.624A38.057 38.057 0 0 1 497.4 78.83zm16.857-62.633c-3.538 3.184-6.558 7.887-8.768 13.627a61.863 61.863 0 0 1-8.088-3.314 38.06 38.06 0 0 1 16.855-10.313zm38.23 10.317c-.968.48-1.948.93-2.94 1.358a6.912 6.912 0 0 0-5.69-2.998 6.88 6.88 0 0 0-1.595.204c-1.883-3.613-4.132-6.627-6.64-8.883a38.056 38.056 0 0 1 16.865 10.32zm-4.126 27.65h14.56a37.823 37.823 0 0 1-8.398 22.346 64.68 64.68 0 0 0-9.14-3.81c1.776-5.52 2.84-11.823 2.98-18.536zm-21.925 15.284V54.164h18.94c-.134 6.436-1.134 12.463-2.788 17.697a65.478 65.478 0 0 0-16.152-2.412zm0 21.123V72.437c5.14.123 10.237.884 15.166 2.248-3.44 8.965-8.915 15.044-15.165 15.887zm-2.986-18.135V90.57c-6.25-.842-11.727-6.92-15.166-15.886a62.543 62.543 0 0 1 15.165-2.25zm-18.94-18.27h18.94v15.283a65.523 65.523 0 0 0-16.152 2.412c-1.655-5.233-2.654-11.26-2.788-17.696zm18.94-18.272v15.284h-18.94c.134-6.436 1.134-12.463 2.788-17.697a65.477 65.477 0 0 0 16.15 2.413zm0-21.123v18.137a62.496 62.496 0 0 1-15.166-2.25c3.44-8.965 8.916-15.044 15.165-15.887zm13.49 16.995a62.443 62.443 0 0 1-10.505 1.147V14.77c5.182.7 9.834 4.994 13.233 11.554-1.64 1.26-2.72 3.218-2.73 5.44zm6.916 3.963a3.937 3.937 0 0 1-3.933-3.933 3.937 3.937 0 0 1 3.933-3.933 3.938 3.938 0 0 1 3.934 3.933 3.938 3.938 0 0 1-3.934 3.933zm-17.42.17a65.518 65.518 0 0 0 11.15-1.218c1.098 2.375 3.487 4.036 6.27 4.036.028 0 .054-.008.08-.01.832 3.89 1.324 8.08 1.417 12.47h-18.918V35.9zm24.34-4.103a6.86 6.86 0 0 0-.117-1.154 64.624 64.624 0 0 0 3.865-1.805 37.826 37.826 0 0 1 8.394 22.342h-14.582c-.095-4.62-.627-9.038-1.53-13.148 2.337-1.113 3.968-3.48 3.968-6.235zm-55.412-2.964a64.602 64.602 0 0 0 9.138 3.81c-1.775 5.52-2.84 11.824-2.977 18.537h-14.558a37.81 37.81 0 0 1 8.397-22.346zm-8.397 25.334h14.558c.138 6.714 1.202 13.02 2.977 18.538a64.52 64.52 0 0 0-9.14 3.805 37.816 37.816 0 0 1-8.395-22.343zm78.976-1.493c0-22.607-18.393-41-41-41-12.32 0-23.382 5.47-30.904 14.1a1.477 1.477 0 0 0-.42.48l-.003.008c-6.03 7.14-9.675 16.357-9.675 26.413 0 22.61 18.393 41 41 41 12.33 0 23.396-5.477 30.92-14.117.158-.125.302-.272.404-.462 0-.002 0-.005.002-.008 6.03-7.14 9.675-16.356 9.675-26.41z" fill="#AAA8A5"/></g></svg>